%TF.GenerationSoftware,KiCad,Pcbnew,(6.0.1)*%
%TF.CreationDate,2022-02-18T16:05:50+00:00*%
%TF.ProjectId,Microphone Booster,4d696372-6f70-4686-9f6e-6520426f6f73,rev?*%
%TF.SameCoordinates,Original*%
%TF.FileFunction,Legend,Top*%
%TF.FilePolarity,Positive*%
%FSLAX46Y46*%
G04 Gerber Fmt 4.6, Leading zero omitted, Abs format (unit mm)*
G04 Created by KiCad (PCBNEW (6.0.1)) date 2022-02-18 16:05:50*
%MOMM*%
%LPD*%
G01*
G04 APERTURE LIST*
G04 Aperture macros list*
%AMRoundRect*
0 Rectangle with rounded corners*
0 $1 Rounding radius*
0 $2 $3 $4 $5 $6 $7 $8 $9 X,Y pos of 4 corners*
0 Add a 4 corners polygon primitive as box body*
4,1,4,$2,$3,$4,$5,$6,$7,$8,$9,$2,$3,0*
0 Add four circle primitives for the rounded corners*
1,1,$1+$1,$2,$3*
1,1,$1+$1,$4,$5*
1,1,$1+$1,$6,$7*
1,1,$1+$1,$8,$9*
0 Add four rect primitives between the rounded corners*
20,1,$1+$1,$2,$3,$4,$5,0*
20,1,$1+$1,$4,$5,$6,$7,0*
20,1,$1+$1,$6,$7,$8,$9,0*
20,1,$1+$1,$8,$9,$2,$3,0*%
%AMFreePoly0*
4,1,9,5.362500,-0.866500,1.237500,-0.866500,1.237500,-0.450000,-1.237500,-0.450000,-1.237500,0.450000,1.237500,0.450000,1.237500,0.866500,5.362500,0.866500,5.362500,-0.866500,5.362500,-0.866500,$1*%
G04 Aperture macros list end*
%ADD10C,0.150000*%
%ADD11C,0.120000*%
%ADD12R,0.800000X1.900000*%
%ADD13R,1.900000X0.800000*%
%ADD14RoundRect,0.250000X1.050000X0.550000X-1.050000X0.550000X-1.050000X-0.550000X1.050000X-0.550000X0*%
%ADD15R,1.700000X1.700000*%
%ADD16O,1.700000X1.700000*%
%ADD17R,2.100000X2.600000*%
%ADD18RoundRect,0.250000X-0.350000X-0.450000X0.350000X-0.450000X0.350000X0.450000X-0.350000X0.450000X0*%
%ADD19RoundRect,0.250000X0.450000X-0.350000X0.450000X0.350000X-0.450000X0.350000X-0.450000X-0.350000X0*%
%ADD20RoundRect,0.250000X0.350000X0.450000X-0.350000X0.450000X-0.350000X-0.450000X0.350000X-0.450000X0*%
%ADD21R,2.600000X2.100000*%
%ADD22RoundRect,0.250000X-0.450000X0.350000X-0.450000X-0.350000X0.450000X-0.350000X0.450000X0.350000X0*%
%ADD23R,2.300000X0.900000*%
%ADD24FreePoly0,180.000000*%
%ADD25R,0.800000X0.900000*%
%ADD26RoundRect,0.237500X0.237500X-0.300000X0.237500X0.300000X-0.237500X0.300000X-0.237500X-0.300000X0*%
%ADD27RoundRect,0.250000X-0.550000X1.500000X-0.550000X-1.500000X0.550000X-1.500000X0.550000X1.500000X0*%
%ADD28RoundRect,0.250000X0.550000X-1.500000X0.550000X1.500000X-0.550000X1.500000X-0.550000X-1.500000X0*%
%ADD29RoundRect,0.250000X1.500000X0.550000X-1.500000X0.550000X-1.500000X-0.550000X1.500000X-0.550000X0*%
%ADD30RoundRect,0.237500X0.300000X0.237500X-0.300000X0.237500X-0.300000X-0.237500X0.300000X-0.237500X0*%
%ADD31RoundRect,0.250000X1.000000X-1.750000X1.000000X1.750000X-1.000000X1.750000X-1.000000X-1.750000X0*%
G04 APERTURE END LIST*
D10*
%TO.C,Q6*%
X123729761Y-73191619D02*
X123634523Y-73144000D01*
X123539285Y-73048761D01*
X123396428Y-72905904D01*
X123301190Y-72858285D01*
X123205952Y-72858285D01*
X123253571Y-73096380D02*
X123158333Y-73048761D01*
X123063095Y-72953523D01*
X123015476Y-72763047D01*
X123015476Y-72429714D01*
X123063095Y-72239238D01*
X123158333Y-72144000D01*
X123253571Y-72096380D01*
X123444047Y-72096380D01*
X123539285Y-72144000D01*
X123634523Y-72239238D01*
X123682142Y-72429714D01*
X123682142Y-72763047D01*
X123634523Y-72953523D01*
X123539285Y-73048761D01*
X123444047Y-73096380D01*
X123253571Y-73096380D01*
X124539285Y-72096380D02*
X124348809Y-72096380D01*
X124253571Y-72144000D01*
X124205952Y-72191619D01*
X124110714Y-72334476D01*
X124063095Y-72524952D01*
X124063095Y-72905904D01*
X124110714Y-73001142D01*
X124158333Y-73048761D01*
X124253571Y-73096380D01*
X124444047Y-73096380D01*
X124539285Y-73048761D01*
X124586904Y-73001142D01*
X124634523Y-72905904D01*
X124634523Y-72667809D01*
X124586904Y-72572571D01*
X124539285Y-72524952D01*
X124444047Y-72477333D01*
X124253571Y-72477333D01*
X124158333Y-72524952D01*
X124110714Y-72572571D01*
X124063095Y-72667809D01*
%TO.C,Q5*%
X126044761Y-77692619D02*
X125949523Y-77645000D01*
X125854285Y-77549761D01*
X125711428Y-77406904D01*
X125616190Y-77359285D01*
X125520952Y-77359285D01*
X125568571Y-77597380D02*
X125473333Y-77549761D01*
X125378095Y-77454523D01*
X125330476Y-77264047D01*
X125330476Y-76930714D01*
X125378095Y-76740238D01*
X125473333Y-76645000D01*
X125568571Y-76597380D01*
X125759047Y-76597380D01*
X125854285Y-76645000D01*
X125949523Y-76740238D01*
X125997142Y-76930714D01*
X125997142Y-77264047D01*
X125949523Y-77454523D01*
X125854285Y-77549761D01*
X125759047Y-77597380D01*
X125568571Y-77597380D01*
X126901904Y-76597380D02*
X126425714Y-76597380D01*
X126378095Y-77073571D01*
X126425714Y-77025952D01*
X126520952Y-76978333D01*
X126759047Y-76978333D01*
X126854285Y-77025952D01*
X126901904Y-77073571D01*
X126949523Y-77168809D01*
X126949523Y-77406904D01*
X126901904Y-77502142D01*
X126854285Y-77549761D01*
X126759047Y-77597380D01*
X126520952Y-77597380D01*
X126425714Y-77549761D01*
X126378095Y-77502142D01*
%TO.C,C6*%
X112482333Y-70740142D02*
X112434714Y-70787761D01*
X112291857Y-70835380D01*
X112196619Y-70835380D01*
X112053761Y-70787761D01*
X111958523Y-70692523D01*
X111910904Y-70597285D01*
X111863285Y-70406809D01*
X111863285Y-70263952D01*
X111910904Y-70073476D01*
X111958523Y-69978238D01*
X112053761Y-69883000D01*
X112196619Y-69835380D01*
X112291857Y-69835380D01*
X112434714Y-69883000D01*
X112482333Y-69930619D01*
X113339476Y-69835380D02*
X113149000Y-69835380D01*
X113053761Y-69883000D01*
X113006142Y-69930619D01*
X112910904Y-70073476D01*
X112863285Y-70263952D01*
X112863285Y-70644904D01*
X112910904Y-70740142D01*
X112958523Y-70787761D01*
X113053761Y-70835380D01*
X113244238Y-70835380D01*
X113339476Y-70787761D01*
X113387095Y-70740142D01*
X113434714Y-70644904D01*
X113434714Y-70406809D01*
X113387095Y-70311571D01*
X113339476Y-70263952D01*
X113244238Y-70216333D01*
X113053761Y-70216333D01*
X112958523Y-70263952D01*
X112910904Y-70311571D01*
X112863285Y-70406809D01*
%TO.C,J2*%
X113106666Y-71322380D02*
X113106666Y-72036666D01*
X113059047Y-72179523D01*
X112963809Y-72274761D01*
X112820952Y-72322380D01*
X112725714Y-72322380D01*
X113535238Y-71417619D02*
X113582857Y-71370000D01*
X113678095Y-71322380D01*
X113916190Y-71322380D01*
X114011428Y-71370000D01*
X114059047Y-71417619D01*
X114106666Y-71512857D01*
X114106666Y-71608095D01*
X114059047Y-71750952D01*
X113487619Y-72322380D01*
X114106666Y-72322380D01*
%TO.C,J1*%
X56976666Y-85602380D02*
X56976666Y-86316666D01*
X56929047Y-86459523D01*
X56833809Y-86554761D01*
X56690952Y-86602380D01*
X56595714Y-86602380D01*
X57976666Y-86602380D02*
X57405238Y-86602380D01*
X57690952Y-86602380D02*
X57690952Y-85602380D01*
X57595714Y-85745238D01*
X57500476Y-85840476D01*
X57405238Y-85888095D01*
%TO.C,R16*%
X74497142Y-66982380D02*
X74163809Y-66506190D01*
X73925714Y-66982380D02*
X73925714Y-65982380D01*
X74306666Y-65982380D01*
X74401904Y-66030000D01*
X74449523Y-66077619D01*
X74497142Y-66172857D01*
X74497142Y-66315714D01*
X74449523Y-66410952D01*
X74401904Y-66458571D01*
X74306666Y-66506190D01*
X73925714Y-66506190D01*
X75449523Y-66982380D02*
X74878095Y-66982380D01*
X75163809Y-66982380D02*
X75163809Y-65982380D01*
X75068571Y-66125238D01*
X74973333Y-66220476D01*
X74878095Y-66268095D01*
X76306666Y-65982380D02*
X76116190Y-65982380D01*
X76020952Y-66030000D01*
X75973333Y-66077619D01*
X75878095Y-66220476D01*
X75830476Y-66410952D01*
X75830476Y-66791904D01*
X75878095Y-66887142D01*
X75925714Y-66934761D01*
X76020952Y-66982380D01*
X76211428Y-66982380D01*
X76306666Y-66934761D01*
X76354285Y-66887142D01*
X76401904Y-66791904D01*
X76401904Y-66553809D01*
X76354285Y-66458571D01*
X76306666Y-66410952D01*
X76211428Y-66363333D01*
X76020952Y-66363333D01*
X75925714Y-66410952D01*
X75878095Y-66458571D01*
X75830476Y-66553809D01*
%TO.C,R15*%
X66242142Y-66982380D02*
X65908809Y-66506190D01*
X65670714Y-66982380D02*
X65670714Y-65982380D01*
X66051666Y-65982380D01*
X66146904Y-66030000D01*
X66194523Y-66077619D01*
X66242142Y-66172857D01*
X66242142Y-66315714D01*
X66194523Y-66410952D01*
X66146904Y-66458571D01*
X66051666Y-66506190D01*
X65670714Y-66506190D01*
X67194523Y-66982380D02*
X66623095Y-66982380D01*
X66908809Y-66982380D02*
X66908809Y-65982380D01*
X66813571Y-66125238D01*
X66718333Y-66220476D01*
X66623095Y-66268095D01*
X68099285Y-65982380D02*
X67623095Y-65982380D01*
X67575476Y-66458571D01*
X67623095Y-66410952D01*
X67718333Y-66363333D01*
X67956428Y-66363333D01*
X68051666Y-66410952D01*
X68099285Y-66458571D01*
X68146904Y-66553809D01*
X68146904Y-66791904D01*
X68099285Y-66887142D01*
X68051666Y-66934761D01*
X67956428Y-66982380D01*
X67718333Y-66982380D01*
X67623095Y-66934761D01*
X67575476Y-66887142D01*
%TO.C,R14*%
X118562142Y-68522380D02*
X118228809Y-68046190D01*
X117990714Y-68522380D02*
X117990714Y-67522380D01*
X118371666Y-67522380D01*
X118466904Y-67570000D01*
X118514523Y-67617619D01*
X118562142Y-67712857D01*
X118562142Y-67855714D01*
X118514523Y-67950952D01*
X118466904Y-67998571D01*
X118371666Y-68046190D01*
X117990714Y-68046190D01*
X119514523Y-68522380D02*
X118943095Y-68522380D01*
X119228809Y-68522380D02*
X119228809Y-67522380D01*
X119133571Y-67665238D01*
X119038333Y-67760476D01*
X118943095Y-67808095D01*
X120371666Y-67855714D02*
X120371666Y-68522380D01*
X120133571Y-67474761D02*
X119895476Y-68189047D01*
X120514523Y-68189047D01*
%TO.C,R13*%
X126272142Y-68522380D02*
X125938809Y-68046190D01*
X125700714Y-68522380D02*
X125700714Y-67522380D01*
X126081666Y-67522380D01*
X126176904Y-67570000D01*
X126224523Y-67617619D01*
X126272142Y-67712857D01*
X126272142Y-67855714D01*
X126224523Y-67950952D01*
X126176904Y-67998571D01*
X126081666Y-68046190D01*
X125700714Y-68046190D01*
X127224523Y-68522380D02*
X126653095Y-68522380D01*
X126938809Y-68522380D02*
X126938809Y-67522380D01*
X126843571Y-67665238D01*
X126748333Y-67760476D01*
X126653095Y-67808095D01*
X127557857Y-67522380D02*
X128176904Y-67522380D01*
X127843571Y-67903333D01*
X127986428Y-67903333D01*
X128081666Y-67950952D01*
X128129285Y-67998571D01*
X128176904Y-68093809D01*
X128176904Y-68331904D01*
X128129285Y-68427142D01*
X128081666Y-68474761D01*
X127986428Y-68522380D01*
X127700714Y-68522380D01*
X127605476Y-68474761D01*
X127557857Y-68427142D01*
%TO.C,R12*%
X116197142Y-77668380D02*
X115863809Y-77192190D01*
X115625714Y-77668380D02*
X115625714Y-76668380D01*
X116006666Y-76668380D01*
X116101904Y-76716000D01*
X116149523Y-76763619D01*
X116197142Y-76858857D01*
X116197142Y-77001714D01*
X116149523Y-77096952D01*
X116101904Y-77144571D01*
X116006666Y-77192190D01*
X115625714Y-77192190D01*
X117149523Y-77668380D02*
X116578095Y-77668380D01*
X116863809Y-77668380D02*
X116863809Y-76668380D01*
X116768571Y-76811238D01*
X116673333Y-76906476D01*
X116578095Y-76954095D01*
X117530476Y-76763619D02*
X117578095Y-76716000D01*
X117673333Y-76668380D01*
X117911428Y-76668380D01*
X118006666Y-76716000D01*
X118054285Y-76763619D01*
X118101904Y-76858857D01*
X118101904Y-76954095D01*
X118054285Y-77096952D01*
X117482857Y-77668380D01*
X118101904Y-77668380D01*
%TO.C,R11*%
X108831142Y-83764380D02*
X108497809Y-83288190D01*
X108259714Y-83764380D02*
X108259714Y-82764380D01*
X108640666Y-82764380D01*
X108735904Y-82812000D01*
X108783523Y-82859619D01*
X108831142Y-82954857D01*
X108831142Y-83097714D01*
X108783523Y-83192952D01*
X108735904Y-83240571D01*
X108640666Y-83288190D01*
X108259714Y-83288190D01*
X109783523Y-83764380D02*
X109212095Y-83764380D01*
X109497809Y-83764380D02*
X109497809Y-82764380D01*
X109402571Y-82907238D01*
X109307333Y-83002476D01*
X109212095Y-83050095D01*
X110735904Y-83764380D02*
X110164476Y-83764380D01*
X110450190Y-83764380D02*
X110450190Y-82764380D01*
X110354952Y-82907238D01*
X110259714Y-83002476D01*
X110164476Y-83050095D01*
%TO.C,R10*%
X108831142Y-82113380D02*
X108497809Y-81637190D01*
X108259714Y-82113380D02*
X108259714Y-81113380D01*
X108640666Y-81113380D01*
X108735904Y-81161000D01*
X108783523Y-81208619D01*
X108831142Y-81303857D01*
X108831142Y-81446714D01*
X108783523Y-81541952D01*
X108735904Y-81589571D01*
X108640666Y-81637190D01*
X108259714Y-81637190D01*
X109783523Y-82113380D02*
X109212095Y-82113380D01*
X109497809Y-82113380D02*
X109497809Y-81113380D01*
X109402571Y-81256238D01*
X109307333Y-81351476D01*
X109212095Y-81399095D01*
X110402571Y-81113380D02*
X110497809Y-81113380D01*
X110593047Y-81161000D01*
X110640666Y-81208619D01*
X110688285Y-81303857D01*
X110735904Y-81494333D01*
X110735904Y-81732428D01*
X110688285Y-81922904D01*
X110640666Y-82018142D01*
X110593047Y-82065761D01*
X110497809Y-82113380D01*
X110402571Y-82113380D01*
X110307333Y-82065761D01*
X110259714Y-82018142D01*
X110212095Y-81922904D01*
X110164476Y-81732428D01*
X110164476Y-81494333D01*
X110212095Y-81303857D01*
X110259714Y-81208619D01*
X110307333Y-81161000D01*
X110402571Y-81113380D01*
%TO.C,R9*%
X80242380Y-68746666D02*
X79766190Y-69080000D01*
X80242380Y-69318095D02*
X79242380Y-69318095D01*
X79242380Y-68937142D01*
X79290000Y-68841904D01*
X79337619Y-68794285D01*
X79432857Y-68746666D01*
X79575714Y-68746666D01*
X79670952Y-68794285D01*
X79718571Y-68841904D01*
X79766190Y-68937142D01*
X79766190Y-69318095D01*
X80242380Y-68270476D02*
X80242380Y-68080000D01*
X80194761Y-67984761D01*
X80147142Y-67937142D01*
X80004285Y-67841904D01*
X79813809Y-67794285D01*
X79432857Y-67794285D01*
X79337619Y-67841904D01*
X79290000Y-67889523D01*
X79242380Y-67984761D01*
X79242380Y-68175238D01*
X79290000Y-68270476D01*
X79337619Y-68318095D01*
X79432857Y-68365714D01*
X79670952Y-68365714D01*
X79766190Y-68318095D01*
X79813809Y-68270476D01*
X79861428Y-68175238D01*
X79861428Y-67984761D01*
X79813809Y-67889523D01*
X79766190Y-67841904D01*
X79670952Y-67794285D01*
%TO.C,R8*%
X98004333Y-66746380D02*
X97671000Y-66270190D01*
X97432904Y-66746380D02*
X97432904Y-65746380D01*
X97813857Y-65746380D01*
X97909095Y-65794000D01*
X97956714Y-65841619D01*
X98004333Y-65936857D01*
X98004333Y-66079714D01*
X97956714Y-66174952D01*
X97909095Y-66222571D01*
X97813857Y-66270190D01*
X97432904Y-66270190D01*
X98575761Y-66174952D02*
X98480523Y-66127333D01*
X98432904Y-66079714D01*
X98385285Y-65984476D01*
X98385285Y-65936857D01*
X98432904Y-65841619D01*
X98480523Y-65794000D01*
X98575761Y-65746380D01*
X98766238Y-65746380D01*
X98861476Y-65794000D01*
X98909095Y-65841619D01*
X98956714Y-65936857D01*
X98956714Y-65984476D01*
X98909095Y-66079714D01*
X98861476Y-66127333D01*
X98766238Y-66174952D01*
X98575761Y-66174952D01*
X98480523Y-66222571D01*
X98432904Y-66270190D01*
X98385285Y-66365428D01*
X98385285Y-66555904D01*
X98432904Y-66651142D01*
X98480523Y-66698761D01*
X98575761Y-66746380D01*
X98766238Y-66746380D01*
X98861476Y-66698761D01*
X98909095Y-66651142D01*
X98956714Y-66555904D01*
X98956714Y-66365428D01*
X98909095Y-66270190D01*
X98861476Y-66222571D01*
X98766238Y-66174952D01*
%TO.C,R7*%
X97861380Y-74588666D02*
X97385190Y-74922000D01*
X97861380Y-75160095D02*
X96861380Y-75160095D01*
X96861380Y-74779142D01*
X96909000Y-74683904D01*
X96956619Y-74636285D01*
X97051857Y-74588666D01*
X97194714Y-74588666D01*
X97289952Y-74636285D01*
X97337571Y-74683904D01*
X97385190Y-74779142D01*
X97385190Y-75160095D01*
X96861380Y-74255333D02*
X96861380Y-73588666D01*
X97861380Y-74017238D01*
%TO.C,R6*%
X69208333Y-73097380D02*
X68875000Y-72621190D01*
X68636904Y-73097380D02*
X68636904Y-72097380D01*
X69017857Y-72097380D01*
X69113095Y-72145000D01*
X69160714Y-72192619D01*
X69208333Y-72287857D01*
X69208333Y-72430714D01*
X69160714Y-72525952D01*
X69113095Y-72573571D01*
X69017857Y-72621190D01*
X68636904Y-72621190D01*
X70065476Y-72097380D02*
X69875000Y-72097380D01*
X69779761Y-72145000D01*
X69732142Y-72192619D01*
X69636904Y-72335476D01*
X69589285Y-72525952D01*
X69589285Y-72906904D01*
X69636904Y-73002142D01*
X69684523Y-73049761D01*
X69779761Y-73097380D01*
X69970238Y-73097380D01*
X70065476Y-73049761D01*
X70113095Y-73002142D01*
X70160714Y-72906904D01*
X70160714Y-72668809D01*
X70113095Y-72573571D01*
X70065476Y-72525952D01*
X69970238Y-72478333D01*
X69779761Y-72478333D01*
X69684523Y-72525952D01*
X69636904Y-72573571D01*
X69589285Y-72668809D01*
%TO.C,R5*%
X84448333Y-85287380D02*
X84115000Y-84811190D01*
X83876904Y-85287380D02*
X83876904Y-84287380D01*
X84257857Y-84287380D01*
X84353095Y-84335000D01*
X84400714Y-84382619D01*
X84448333Y-84477857D01*
X84448333Y-84620714D01*
X84400714Y-84715952D01*
X84353095Y-84763571D01*
X84257857Y-84811190D01*
X83876904Y-84811190D01*
X85353095Y-84287380D02*
X84876904Y-84287380D01*
X84829285Y-84763571D01*
X84876904Y-84715952D01*
X84972142Y-84668333D01*
X85210238Y-84668333D01*
X85305476Y-84715952D01*
X85353095Y-84763571D01*
X85400714Y-84858809D01*
X85400714Y-85096904D01*
X85353095Y-85192142D01*
X85305476Y-85239761D01*
X85210238Y-85287380D01*
X84972142Y-85287380D01*
X84876904Y-85239761D01*
X84829285Y-85192142D01*
%TO.C,R4*%
X96148333Y-81352380D02*
X95815000Y-80876190D01*
X95576904Y-81352380D02*
X95576904Y-80352380D01*
X95957857Y-80352380D01*
X96053095Y-80400000D01*
X96100714Y-80447619D01*
X96148333Y-80542857D01*
X96148333Y-80685714D01*
X96100714Y-80780952D01*
X96053095Y-80828571D01*
X95957857Y-80876190D01*
X95576904Y-80876190D01*
X97005476Y-80685714D02*
X97005476Y-81352380D01*
X96767380Y-80304761D02*
X96529285Y-81019047D01*
X97148333Y-81019047D01*
%TO.C,R3*%
X69208333Y-78812380D02*
X68875000Y-78336190D01*
X68636904Y-78812380D02*
X68636904Y-77812380D01*
X69017857Y-77812380D01*
X69113095Y-77860000D01*
X69160714Y-77907619D01*
X69208333Y-78002857D01*
X69208333Y-78145714D01*
X69160714Y-78240952D01*
X69113095Y-78288571D01*
X69017857Y-78336190D01*
X68636904Y-78336190D01*
X69541666Y-77812380D02*
X70160714Y-77812380D01*
X69827380Y-78193333D01*
X69970238Y-78193333D01*
X70065476Y-78240952D01*
X70113095Y-78288571D01*
X70160714Y-78383809D01*
X70160714Y-78621904D01*
X70113095Y-78717142D01*
X70065476Y-78764761D01*
X69970238Y-78812380D01*
X69684523Y-78812380D01*
X69589285Y-78764761D01*
X69541666Y-78717142D01*
%TO.C,R2*%
X87117380Y-77686666D02*
X86641190Y-78020000D01*
X87117380Y-78258095D02*
X86117380Y-78258095D01*
X86117380Y-77877142D01*
X86165000Y-77781904D01*
X86212619Y-77734285D01*
X86307857Y-77686666D01*
X86450714Y-77686666D01*
X86545952Y-77734285D01*
X86593571Y-77781904D01*
X86641190Y-77877142D01*
X86641190Y-78258095D01*
X86212619Y-77305714D02*
X86165000Y-77258095D01*
X86117380Y-77162857D01*
X86117380Y-76924761D01*
X86165000Y-76829523D01*
X86212619Y-76781904D01*
X86307857Y-76734285D01*
X86403095Y-76734285D01*
X86545952Y-76781904D01*
X87117380Y-77353333D01*
X87117380Y-76734285D01*
%TO.C,R1*%
X62301380Y-83986666D02*
X61825190Y-84320000D01*
X62301380Y-84558095D02*
X61301380Y-84558095D01*
X61301380Y-84177142D01*
X61349000Y-84081904D01*
X61396619Y-84034285D01*
X61491857Y-83986666D01*
X61634714Y-83986666D01*
X61729952Y-84034285D01*
X61777571Y-84081904D01*
X61825190Y-84177142D01*
X61825190Y-84558095D01*
X62301380Y-83034285D02*
X62301380Y-83605714D01*
X62301380Y-83320000D02*
X61301380Y-83320000D01*
X61444238Y-83415238D01*
X61539476Y-83510476D01*
X61587095Y-83605714D01*
%TO.C,Q4*%
X87394761Y-74532619D02*
X87299523Y-74485000D01*
X87204285Y-74389761D01*
X87061428Y-74246904D01*
X86966190Y-74199285D01*
X86870952Y-74199285D01*
X86918571Y-74437380D02*
X86823333Y-74389761D01*
X86728095Y-74294523D01*
X86680476Y-74104047D01*
X86680476Y-73770714D01*
X86728095Y-73580238D01*
X86823333Y-73485000D01*
X86918571Y-73437380D01*
X87109047Y-73437380D01*
X87204285Y-73485000D01*
X87299523Y-73580238D01*
X87347142Y-73770714D01*
X87347142Y-74104047D01*
X87299523Y-74294523D01*
X87204285Y-74389761D01*
X87109047Y-74437380D01*
X86918571Y-74437380D01*
X88204285Y-73770714D02*
X88204285Y-74437380D01*
X87966190Y-73389761D02*
X87728095Y-74104047D01*
X88347142Y-74104047D01*
%TO.C,Q3*%
X97956619Y-76930238D02*
X97909000Y-77025476D01*
X97813761Y-77120714D01*
X97670904Y-77263571D01*
X97623285Y-77358809D01*
X97623285Y-77454047D01*
X97861380Y-77406428D02*
X97813761Y-77501666D01*
X97718523Y-77596904D01*
X97528047Y-77644523D01*
X97194714Y-77644523D01*
X97004238Y-77596904D01*
X96909000Y-77501666D01*
X96861380Y-77406428D01*
X96861380Y-77215952D01*
X96909000Y-77120714D01*
X97004238Y-77025476D01*
X97194714Y-76977857D01*
X97528047Y-76977857D01*
X97718523Y-77025476D01*
X97813761Y-77120714D01*
X97861380Y-77215952D01*
X97861380Y-77406428D01*
X96861380Y-76644523D02*
X96861380Y-76025476D01*
X97242333Y-76358809D01*
X97242333Y-76215952D01*
X97289952Y-76120714D01*
X97337571Y-76073095D01*
X97432809Y-76025476D01*
X97670904Y-76025476D01*
X97766142Y-76073095D01*
X97813761Y-76120714D01*
X97861380Y-76215952D01*
X97861380Y-76501666D01*
X97813761Y-76596904D01*
X97766142Y-76644523D01*
%TO.C,Q2*%
X89934761Y-85962619D02*
X89839523Y-85915000D01*
X89744285Y-85819761D01*
X89601428Y-85676904D01*
X89506190Y-85629285D01*
X89410952Y-85629285D01*
X89458571Y-85867380D02*
X89363333Y-85819761D01*
X89268095Y-85724523D01*
X89220476Y-85534047D01*
X89220476Y-85200714D01*
X89268095Y-85010238D01*
X89363333Y-84915000D01*
X89458571Y-84867380D01*
X89649047Y-84867380D01*
X89744285Y-84915000D01*
X89839523Y-85010238D01*
X89887142Y-85200714D01*
X89887142Y-85534047D01*
X89839523Y-85724523D01*
X89744285Y-85819761D01*
X89649047Y-85867380D01*
X89458571Y-85867380D01*
X90268095Y-84962619D02*
X90315714Y-84915000D01*
X90410952Y-84867380D01*
X90649047Y-84867380D01*
X90744285Y-84915000D01*
X90791904Y-84962619D01*
X90839523Y-85057857D01*
X90839523Y-85153095D01*
X90791904Y-85295952D01*
X90220476Y-85867380D01*
X90839523Y-85867380D01*
%TO.C,Q1*%
X89693761Y-78906619D02*
X89598523Y-78859000D01*
X89503285Y-78763761D01*
X89360428Y-78620904D01*
X89265190Y-78573285D01*
X89169952Y-78573285D01*
X89217571Y-78811380D02*
X89122333Y-78763761D01*
X89027095Y-78668523D01*
X88979476Y-78478047D01*
X88979476Y-78144714D01*
X89027095Y-77954238D01*
X89122333Y-77859000D01*
X89217571Y-77811380D01*
X89408047Y-77811380D01*
X89503285Y-77859000D01*
X89598523Y-77954238D01*
X89646142Y-78144714D01*
X89646142Y-78478047D01*
X89598523Y-78668523D01*
X89503285Y-78763761D01*
X89408047Y-78811380D01*
X89217571Y-78811380D01*
X90598523Y-78811380D02*
X90027095Y-78811380D01*
X90312809Y-78811380D02*
X90312809Y-77811380D01*
X90217571Y-77954238D01*
X90122333Y-78049476D01*
X90027095Y-78097095D01*
%TO.C,D1*%
X127822380Y-75938095D02*
X126822380Y-75938095D01*
X126822380Y-75700000D01*
X126870000Y-75557142D01*
X126965238Y-75461904D01*
X127060476Y-75414285D01*
X127250952Y-75366666D01*
X127393809Y-75366666D01*
X127584285Y-75414285D01*
X127679523Y-75461904D01*
X127774761Y-75557142D01*
X127822380Y-75700000D01*
X127822380Y-75938095D01*
X127822380Y-74414285D02*
X127822380Y-74985714D01*
X127822380Y-74700000D02*
X126822380Y-74700000D01*
X126965238Y-74795238D01*
X127060476Y-74890476D01*
X127108095Y-74985714D01*
%TO.C,C9*%
X60936142Y-80938666D02*
X60983761Y-80986285D01*
X61031380Y-81129142D01*
X61031380Y-81224380D01*
X60983761Y-81367238D01*
X60888523Y-81462476D01*
X60793285Y-81510095D01*
X60602809Y-81557714D01*
X60459952Y-81557714D01*
X60269476Y-81510095D01*
X60174238Y-81462476D01*
X60079000Y-81367238D01*
X60031380Y-81224380D01*
X60031380Y-81129142D01*
X60079000Y-80986285D01*
X60126619Y-80938666D01*
X61031380Y-80462476D02*
X61031380Y-80272000D01*
X60983761Y-80176761D01*
X60936142Y-80129142D01*
X60793285Y-80033904D01*
X60602809Y-79986285D01*
X60221857Y-79986285D01*
X60126619Y-80033904D01*
X60079000Y-80081523D01*
X60031380Y-80176761D01*
X60031380Y-80367238D01*
X60079000Y-80462476D01*
X60126619Y-80510095D01*
X60221857Y-80557714D01*
X60459952Y-80557714D01*
X60555190Y-80510095D01*
X60602809Y-80462476D01*
X60650428Y-80367238D01*
X60650428Y-80176761D01*
X60602809Y-80081523D01*
X60555190Y-80033904D01*
X60459952Y-79986285D01*
%TO.C,C8*%
X59539142Y-72302666D02*
X59586761Y-72350285D01*
X59634380Y-72493142D01*
X59634380Y-72588380D01*
X59586761Y-72731238D01*
X59491523Y-72826476D01*
X59396285Y-72874095D01*
X59205809Y-72921714D01*
X59062952Y-72921714D01*
X58872476Y-72874095D01*
X58777238Y-72826476D01*
X58682000Y-72731238D01*
X58634380Y-72588380D01*
X58634380Y-72493142D01*
X58682000Y-72350285D01*
X58729619Y-72302666D01*
X59062952Y-71731238D02*
X59015333Y-71826476D01*
X58967714Y-71874095D01*
X58872476Y-71921714D01*
X58824857Y-71921714D01*
X58729619Y-71874095D01*
X58682000Y-71826476D01*
X58634380Y-71731238D01*
X58634380Y-71540761D01*
X58682000Y-71445523D01*
X58729619Y-71397904D01*
X58824857Y-71350285D01*
X58872476Y-71350285D01*
X58967714Y-71397904D01*
X59015333Y-71445523D01*
X59062952Y-71540761D01*
X59062952Y-71731238D01*
X59110571Y-71826476D01*
X59158190Y-71874095D01*
X59253428Y-71921714D01*
X59443904Y-71921714D01*
X59539142Y-71874095D01*
X59586761Y-71826476D01*
X59634380Y-71731238D01*
X59634380Y-71540761D01*
X59586761Y-71445523D01*
X59539142Y-71397904D01*
X59443904Y-71350285D01*
X59253428Y-71350285D01*
X59158190Y-71397904D01*
X59110571Y-71445523D01*
X59062952Y-71540761D01*
%TO.C,C7*%
X128882142Y-77001666D02*
X128929761Y-77049285D01*
X128977380Y-77192142D01*
X128977380Y-77287380D01*
X128929761Y-77430238D01*
X128834523Y-77525476D01*
X128739285Y-77573095D01*
X128548809Y-77620714D01*
X128405952Y-77620714D01*
X128215476Y-77573095D01*
X128120238Y-77525476D01*
X128025000Y-77430238D01*
X127977380Y-77287380D01*
X127977380Y-77192142D01*
X128025000Y-77049285D01*
X128072619Y-77001666D01*
X127977380Y-76668333D02*
X127977380Y-76001666D01*
X128977380Y-76430238D01*
%TO.C,C5*%
X102068333Y-84082142D02*
X102020714Y-84129761D01*
X101877857Y-84177380D01*
X101782619Y-84177380D01*
X101639761Y-84129761D01*
X101544523Y-84034523D01*
X101496904Y-83939285D01*
X101449285Y-83748809D01*
X101449285Y-83605952D01*
X101496904Y-83415476D01*
X101544523Y-83320238D01*
X101639761Y-83225000D01*
X101782619Y-83177380D01*
X101877857Y-83177380D01*
X102020714Y-83225000D01*
X102068333Y-83272619D01*
X102973095Y-83177380D02*
X102496904Y-83177380D01*
X102449285Y-83653571D01*
X102496904Y-83605952D01*
X102592142Y-83558333D01*
X102830238Y-83558333D01*
X102925476Y-83605952D01*
X102973095Y-83653571D01*
X103020714Y-83748809D01*
X103020714Y-83986904D01*
X102973095Y-84082142D01*
X102925476Y-84129761D01*
X102830238Y-84177380D01*
X102592142Y-84177380D01*
X102496904Y-84129761D01*
X102449285Y-84082142D01*
%TO.C,C4*%
X106198333Y-76462142D02*
X106150714Y-76509761D01*
X106007857Y-76557380D01*
X105912619Y-76557380D01*
X105769761Y-76509761D01*
X105674523Y-76414523D01*
X105626904Y-76319285D01*
X105579285Y-76128809D01*
X105579285Y-75985952D01*
X105626904Y-75795476D01*
X105674523Y-75700238D01*
X105769761Y-75605000D01*
X105912619Y-75557380D01*
X106007857Y-75557380D01*
X106150714Y-75605000D01*
X106198333Y-75652619D01*
X107055476Y-75890714D02*
X107055476Y-76557380D01*
X106817380Y-75509761D02*
X106579285Y-76224047D01*
X107198333Y-76224047D01*
%TO.C,C3*%
X84448333Y-68462142D02*
X84400714Y-68509761D01*
X84257857Y-68557380D01*
X84162619Y-68557380D01*
X84019761Y-68509761D01*
X83924523Y-68414523D01*
X83876904Y-68319285D01*
X83829285Y-68128809D01*
X83829285Y-67985952D01*
X83876904Y-67795476D01*
X83924523Y-67700238D01*
X84019761Y-67605000D01*
X84162619Y-67557380D01*
X84257857Y-67557380D01*
X84400714Y-67605000D01*
X84448333Y-67652619D01*
X84781666Y-67557380D02*
X85400714Y-67557380D01*
X85067380Y-67938333D01*
X85210238Y-67938333D01*
X85305476Y-67985952D01*
X85353095Y-68033571D01*
X85400714Y-68128809D01*
X85400714Y-68366904D01*
X85353095Y-68462142D01*
X85305476Y-68509761D01*
X85210238Y-68557380D01*
X84924523Y-68557380D01*
X84829285Y-68509761D01*
X84781666Y-68462142D01*
%TO.C,C2*%
X71152142Y-76620666D02*
X71199761Y-76668285D01*
X71247380Y-76811142D01*
X71247380Y-76906380D01*
X71199761Y-77049238D01*
X71104523Y-77144476D01*
X71009285Y-77192095D01*
X70818809Y-77239714D01*
X70675952Y-77239714D01*
X70485476Y-77192095D01*
X70390238Y-77144476D01*
X70295000Y-77049238D01*
X70247380Y-76906380D01*
X70247380Y-76811142D01*
X70295000Y-76668285D01*
X70342619Y-76620666D01*
X70342619Y-76239714D02*
X70295000Y-76192095D01*
X70247380Y-76096857D01*
X70247380Y-75858761D01*
X70295000Y-75763523D01*
X70342619Y-75715904D01*
X70437857Y-75668285D01*
X70533095Y-75668285D01*
X70675952Y-75715904D01*
X71247380Y-76287333D01*
X71247380Y-75668285D01*
%TO.C,C1*%
X67794142Y-83986666D02*
X67841761Y-84034285D01*
X67889380Y-84177142D01*
X67889380Y-84272380D01*
X67841761Y-84415238D01*
X67746523Y-84510476D01*
X67651285Y-84558095D01*
X67460809Y-84605714D01*
X67317952Y-84605714D01*
X67127476Y-84558095D01*
X67032238Y-84510476D01*
X66937000Y-84415238D01*
X66889380Y-84272380D01*
X66889380Y-84177142D01*
X66937000Y-84034285D01*
X66984619Y-83986666D01*
X67889380Y-83034285D02*
X67889380Y-83605714D01*
X67889380Y-83320000D02*
X66889380Y-83320000D01*
X67032238Y-83415238D01*
X67127476Y-83510476D01*
X67175095Y-83605714D01*
D11*
%TO.C,Q6*%
X122005000Y-75325000D02*
X122005000Y-72165000D01*
X118845000Y-75325000D02*
X118845000Y-73865000D01*
X118845000Y-75325000D02*
X119775000Y-75325000D01*
X122005000Y-75325000D02*
X121075000Y-75325000D01*
%TO.C,Q5*%
X126900000Y-78065000D02*
X123740000Y-78065000D01*
X126900000Y-81225000D02*
X125440000Y-81225000D01*
X126900000Y-81225000D02*
X126900000Y-80295000D01*
X126900000Y-78065000D02*
X126900000Y-78995000D01*
%TO.C,C6*%
X114909000Y-65987437D02*
X113844563Y-64923000D01*
X110389000Y-64923000D02*
X110389000Y-66123000D01*
X110389000Y-69443000D02*
X110389000Y-68243000D01*
X113844563Y-64923000D02*
X110389000Y-64923000D01*
X114909000Y-68378563D02*
X114909000Y-68243000D01*
X113844563Y-69443000D02*
X110389000Y-69443000D01*
X115399000Y-68993000D02*
X115399000Y-68493000D01*
X114909000Y-65987437D02*
X114909000Y-66123000D01*
X115649000Y-68743000D02*
X115149000Y-68743000D01*
X114909000Y-68378563D02*
X113844563Y-69443000D01*
%TO.C,J2*%
X112110000Y-80610000D02*
X114770000Y-80610000D01*
X112110000Y-75470000D02*
X112110000Y-80610000D01*
X112110000Y-74200000D02*
X112110000Y-72870000D01*
X114770000Y-75470000D02*
X114770000Y-80610000D01*
X112110000Y-72870000D02*
X113440000Y-72870000D01*
X112110000Y-75470000D02*
X114770000Y-75470000D01*
%TO.C,J1*%
X58640000Y-82550000D02*
X55980000Y-82550000D01*
X58640000Y-85150000D02*
X57310000Y-85150000D01*
X55980000Y-82550000D02*
X55980000Y-77410000D01*
X58640000Y-83820000D02*
X58640000Y-85150000D01*
X58640000Y-82550000D02*
X58640000Y-77410000D01*
X58640000Y-77410000D02*
X55980000Y-77410000D01*
%TO.C,R16*%
X76290000Y-69780000D02*
X73890000Y-69780000D01*
X76290000Y-67380000D02*
X73890000Y-67380000D01*
%TO.C,R15*%
X68035000Y-67380000D02*
X65635000Y-67380000D01*
X68035000Y-69780000D02*
X65635000Y-69780000D01*
%TO.C,R14*%
X120355000Y-68920000D02*
X117955000Y-68920000D01*
X120355000Y-71320000D02*
X117955000Y-71320000D01*
%TO.C,R13*%
X128065000Y-68920000D02*
X125665000Y-68920000D01*
X128065000Y-71320000D02*
X125665000Y-71320000D01*
%TO.C,R12*%
X120355000Y-78445000D02*
X117955000Y-78445000D01*
X120355000Y-80845000D02*
X117955000Y-80845000D01*
%TO.C,R11*%
X109152936Y-78640000D02*
X109607064Y-78640000D01*
X109152936Y-80110000D02*
X109607064Y-80110000D01*
%TO.C,R10*%
X109152936Y-77570000D02*
X109607064Y-77570000D01*
X109152936Y-76100000D02*
X109607064Y-76100000D01*
%TO.C,R9*%
X80705000Y-68807064D02*
X80705000Y-68352936D01*
X82175000Y-68807064D02*
X82175000Y-68352936D01*
%TO.C,R8*%
X105086000Y-65221000D02*
X102686000Y-65221000D01*
X105086000Y-67621000D02*
X102686000Y-67621000D01*
%TO.C,R7*%
X100447064Y-73560000D02*
X99992936Y-73560000D01*
X100447064Y-75030000D02*
X99992936Y-75030000D01*
%TO.C,R6*%
X69147936Y-73560000D02*
X69602064Y-73560000D01*
X69147936Y-75030000D02*
X69602064Y-75030000D01*
%TO.C,R5*%
X84842064Y-83920000D02*
X84387936Y-83920000D01*
X84842064Y-82450000D02*
X84387936Y-82450000D01*
%TO.C,R4*%
X96087936Y-81815000D02*
X96542064Y-81815000D01*
X96087936Y-83285000D02*
X96542064Y-83285000D01*
%TO.C,R3*%
X69147936Y-79275000D02*
X69602064Y-79275000D01*
X69147936Y-80745000D02*
X69602064Y-80745000D01*
%TO.C,R2*%
X83415000Y-78670000D02*
X83415000Y-76270000D01*
X85815000Y-78670000D02*
X85815000Y-76270000D01*
%TO.C,R1*%
X62925000Y-83592936D02*
X62925000Y-84047064D01*
X64395000Y-83592936D02*
X64395000Y-84047064D01*
%TO.C,Q4*%
X89990000Y-72615000D02*
X88850000Y-72615000D01*
X86130000Y-68125000D02*
X88850000Y-68125000D01*
X88850000Y-68125000D02*
X88850000Y-68355000D01*
X88850000Y-72845000D02*
X86130000Y-72845000D01*
X88850000Y-72845000D02*
X88850000Y-72615000D01*
X86130000Y-72845000D02*
X86130000Y-71535000D01*
X86130000Y-69435000D02*
X86130000Y-68125000D01*
%TO.C,Q3*%
X98722500Y-72615000D02*
X97582500Y-72615000D01*
X94862500Y-68125000D02*
X97582500Y-68125000D01*
X97582500Y-68125000D02*
X97582500Y-68355000D01*
X97582500Y-72845000D02*
X94862500Y-72845000D01*
X97582500Y-72845000D02*
X97582500Y-72615000D01*
X94862500Y-72845000D02*
X94862500Y-71535000D01*
X94862500Y-69435000D02*
X94862500Y-68125000D01*
%TO.C,Q2*%
X92530000Y-84045000D02*
X91390000Y-84045000D01*
X88670000Y-79555000D02*
X91390000Y-79555000D01*
X91390000Y-79555000D02*
X91390000Y-79785000D01*
X91390000Y-84275000D02*
X88670000Y-84275000D01*
X91390000Y-84275000D02*
X91390000Y-84045000D01*
X88670000Y-84275000D02*
X88670000Y-82965000D01*
X88670000Y-80865000D02*
X88670000Y-79555000D01*
%TO.C,Q1*%
X95070000Y-78330000D02*
X93930000Y-78330000D01*
X91210000Y-73840000D02*
X93930000Y-73840000D01*
X93930000Y-73840000D02*
X93930000Y-74070000D01*
X93930000Y-78560000D02*
X91210000Y-78560000D01*
X93930000Y-78560000D02*
X93930000Y-78330000D01*
X91210000Y-78560000D02*
X91210000Y-77250000D01*
X91210000Y-75150000D02*
X91210000Y-73840000D01*
%TO.C,D1*%
X126450000Y-75960000D02*
X125520000Y-75960000D01*
X126450000Y-75960000D02*
X126450000Y-73800000D01*
X123290000Y-75960000D02*
X123290000Y-74500000D01*
X123290000Y-75960000D02*
X124220000Y-75960000D01*
%TO.C,C9*%
X59340000Y-83966267D02*
X59340000Y-83673733D01*
X60360000Y-83966267D02*
X60360000Y-83673733D01*
%TO.C,C8*%
X60250000Y-73219437D02*
X60250000Y-78975000D01*
X65901250Y-71521250D02*
X65113750Y-71521250D01*
X66005563Y-72155000D02*
X64720000Y-72155000D01*
X66005563Y-72155000D02*
X67070000Y-73219437D01*
X67070000Y-73219437D02*
X67070000Y-78975000D01*
X65507500Y-71127500D02*
X65507500Y-71915000D01*
X61314437Y-72155000D02*
X62600000Y-72155000D01*
X60250000Y-78975000D02*
X62600000Y-78975000D01*
X67070000Y-78975000D02*
X64720000Y-78975000D01*
X61314437Y-72155000D02*
X60250000Y-73219437D01*
%TO.C,C7*%
X135220563Y-80245000D02*
X136285000Y-79180563D01*
X129465000Y-73425000D02*
X131815000Y-73425000D01*
X136285000Y-73425000D02*
X133935000Y-73425000D01*
X135220563Y-80245000D02*
X133935000Y-80245000D01*
X131027500Y-81272500D02*
X131027500Y-80485000D01*
X129465000Y-79180563D02*
X129465000Y-73425000D01*
X130529437Y-80245000D02*
X129465000Y-79180563D01*
X130529437Y-80245000D02*
X131815000Y-80245000D01*
X130633750Y-80878750D02*
X131421250Y-80878750D01*
X136285000Y-79180563D02*
X136285000Y-73425000D01*
%TO.C,C5*%
X105645000Y-77029437D02*
X104580563Y-75965000D01*
X98825000Y-82785000D02*
X98825000Y-80435000D01*
X98825000Y-75965000D02*
X98825000Y-78315000D01*
X105645000Y-77029437D02*
X105645000Y-78315000D01*
X106672500Y-81222500D02*
X105885000Y-81222500D01*
X104580563Y-82785000D02*
X98825000Y-82785000D01*
X105645000Y-81720563D02*
X104580563Y-82785000D01*
X105645000Y-81720563D02*
X105645000Y-80435000D01*
X106278750Y-81616250D02*
X106278750Y-80828750D01*
X104580563Y-75965000D02*
X98825000Y-75965000D01*
%TO.C,C4*%
X109775000Y-69409437D02*
X108710563Y-68345000D01*
X102955000Y-75165000D02*
X102955000Y-72815000D01*
X102955000Y-68345000D02*
X102955000Y-70695000D01*
X109775000Y-69409437D02*
X109775000Y-70695000D01*
X110802500Y-73602500D02*
X110015000Y-73602500D01*
X108710563Y-75165000D02*
X102955000Y-75165000D01*
X109775000Y-74100563D02*
X108710563Y-75165000D01*
X109775000Y-74100563D02*
X109775000Y-72815000D01*
X110408750Y-73996250D02*
X110408750Y-73208750D01*
X108710563Y-68345000D02*
X102955000Y-68345000D01*
%TO.C,C3*%
X84761267Y-67185000D02*
X84468733Y-67185000D01*
X84761267Y-66165000D02*
X84468733Y-66165000D01*
%TO.C,C2*%
X72799437Y-82730000D02*
X71735000Y-81665563D01*
X82255000Y-72210000D02*
X78505000Y-72210000D01*
X81190563Y-82730000D02*
X78505000Y-82730000D01*
X73610000Y-83595000D02*
X74860000Y-83595000D01*
X81190563Y-82730000D02*
X82255000Y-81665563D01*
X74235000Y-84220000D02*
X74235000Y-82970000D01*
X72799437Y-82730000D02*
X75485000Y-82730000D01*
X71735000Y-72210000D02*
X75485000Y-72210000D01*
X71735000Y-81665563D02*
X71735000Y-72210000D01*
X82255000Y-81665563D02*
X82255000Y-72210000D01*
%TO.C,C1*%
X65055000Y-83966267D02*
X65055000Y-83673733D01*
X66075000Y-83966267D02*
X66075000Y-83673733D01*
%TD*%
%LPC*%
D12*
%TO.C,Q6*%
X121375000Y-73065000D03*
X119475000Y-73065000D03*
X120425000Y-76065000D03*
%TD*%
D13*
%TO.C,Q5*%
X124640000Y-78695000D03*
X124640000Y-80595000D03*
X127640000Y-79645000D03*
%TD*%
D14*
%TO.C,C6*%
X114449000Y-67183000D03*
X110849000Y-67183000D03*
%TD*%
D15*
%TO.C,J2*%
X113440000Y-74200000D03*
D16*
X113440000Y-76740000D03*
X113440000Y-79280000D03*
%TD*%
%TO.C,J1*%
X57310000Y-78740000D03*
X57310000Y-81280000D03*
D15*
X57310000Y-83820000D03*
%TD*%
D17*
%TO.C,R16*%
X77540000Y-68580000D03*
X72640000Y-68580000D03*
%TD*%
%TO.C,R15*%
X64385000Y-68580000D03*
X69285000Y-68580000D03*
%TD*%
%TO.C,R14*%
X116705000Y-70120000D03*
X121605000Y-70120000D03*
%TD*%
%TO.C,R13*%
X124415000Y-70120000D03*
X129315000Y-70120000D03*
%TD*%
%TO.C,R12*%
X116705000Y-79645000D03*
X121605000Y-79645000D03*
%TD*%
D18*
%TO.C,R11*%
X108380000Y-79375000D03*
X110380000Y-79375000D03*
%TD*%
%TO.C,R10*%
X110380000Y-76835000D03*
X108380000Y-76835000D03*
%TD*%
D19*
%TO.C,R9*%
X81440000Y-69580000D03*
X81440000Y-67580000D03*
%TD*%
D17*
%TO.C,R8*%
X101436000Y-66421000D03*
X106336000Y-66421000D03*
%TD*%
D20*
%TO.C,R7*%
X99220000Y-74295000D03*
X101220000Y-74295000D03*
%TD*%
D18*
%TO.C,R6*%
X68375000Y-74295000D03*
X70375000Y-74295000D03*
%TD*%
D20*
%TO.C,R5*%
X85615000Y-83185000D03*
X83615000Y-83185000D03*
%TD*%
D18*
%TO.C,R4*%
X95315000Y-82550000D03*
X97315000Y-82550000D03*
%TD*%
%TO.C,R3*%
X68375000Y-80010000D03*
X70375000Y-80010000D03*
%TD*%
D21*
%TO.C,R2*%
X84615000Y-79920000D03*
X84615000Y-75020000D03*
%TD*%
D22*
%TO.C,R1*%
X63660000Y-84820000D03*
X63660000Y-82820000D03*
%TD*%
D23*
%TO.C,Q4*%
X89940000Y-71985000D03*
D24*
X89852500Y-70485000D03*
D23*
X89940000Y-68985000D03*
%TD*%
%TO.C,Q3*%
X98672500Y-71985000D03*
D24*
X98585000Y-70485000D03*
D23*
X98672500Y-68985000D03*
%TD*%
%TO.C,Q2*%
X92480000Y-83415000D03*
D24*
X92392500Y-81915000D03*
D23*
X92480000Y-80415000D03*
%TD*%
%TO.C,Q1*%
X95020000Y-77700000D03*
D24*
X94932500Y-76200000D03*
D23*
X95020000Y-74700000D03*
%TD*%
D25*
%TO.C,D1*%
X123920000Y-74200000D03*
X124870000Y-76200000D03*
X125820000Y-74200000D03*
%TD*%
D26*
%TO.C,C9*%
X59850000Y-84682500D03*
X59850000Y-82957500D03*
%TD*%
D27*
%TO.C,C8*%
X63660000Y-78265000D03*
X63660000Y-72865000D03*
%TD*%
D28*
%TO.C,C7*%
X132875000Y-79535000D03*
X132875000Y-74135000D03*
%TD*%
D29*
%TO.C,C5*%
X104935000Y-79375000D03*
X99535000Y-79375000D03*
%TD*%
%TO.C,C4*%
X109065000Y-71755000D03*
X103665000Y-71755000D03*
%TD*%
D30*
%TO.C,C3*%
X85477500Y-66675000D03*
X83752500Y-66675000D03*
%TD*%
D31*
%TO.C,C2*%
X76995000Y-81470000D03*
X76995000Y-73470000D03*
%TD*%
D26*
%TO.C,C1*%
X65565000Y-84682500D03*
X65565000Y-82957500D03*
%TD*%
M02*
