%TF.GenerationSoftware,KiCad,Pcbnew,(6.0.1)*%
%TF.CreationDate,2022-02-18T16:05:49+00:00*%
%TF.ProjectId,Microphone Booster,4d696372-6f70-4686-9f6e-6520426f6f73,rev?*%
%TF.SameCoordinates,Original*%
%TF.FileFunction,Copper,L2,Bot*%
%TF.FilePolarity,Positive*%
%FSLAX46Y46*%
G04 Gerber Fmt 4.6, Leading zero omitted, Abs format (unit mm)*
G04 Created by KiCad (PCBNEW (6.0.1)) date 2022-02-18 16:05:49*
%MOMM*%
%LPD*%
G01*
G04 APERTURE LIST*
%TA.AperFunction,ComponentPad*%
%ADD10R,1.700000X1.700000*%
%TD*%
%TA.AperFunction,ComponentPad*%
%ADD11O,1.700000X1.700000*%
%TD*%
%TA.AperFunction,ViaPad*%
%ADD12C,0.800000*%
%TD*%
%TA.AperFunction,Conductor*%
%ADD13C,0.250000*%
%TD*%
G04 APERTURE END LIST*
D10*
%TO.P,J2,1,Pin_1*%
%TO.N,XLR OUT GND*%
X113440000Y-74200000D03*
D11*
%TO.P,J2,2,Pin_2*%
%TO.N,XLR OUT HOT*%
X113440000Y-76740000D03*
%TO.P,J2,3,Pin_3*%
%TO.N,XLR OUT COLD*%
X113440000Y-79280000D03*
%TD*%
%TO.P,J1,3,Pin_3*%
%TO.N,XLR IN COLD*%
X57310000Y-78740000D03*
%TO.P,J1,2,Pin_2*%
%TO.N,XLR IN HOT*%
X57310000Y-81280000D03*
D10*
%TO.P,J1,1,Pin_1*%
%TO.N,XLR IN GND*%
X57310000Y-83820000D03*
%TD*%
D12*
%TO.N,XLR OUT GND*%
X111760000Y-69215000D03*
X61120000Y-83185000D03*
X66835000Y-81915000D03*
X65565000Y-76835000D03*
X87155000Y-66675000D03*
X75090000Y-68580000D03*
%TO.N,+15V*%
X66200000Y-70395000D03*
X64295000Y-65405000D03*
X134780000Y-78740000D03*
%TO.N,XLR OUT GND*%
X99220000Y-81915000D03*
X97950000Y-74930000D03*
%TO.N,+15V*%
X68740000Y-78194500D03*
X68740000Y-76200000D03*
%TO.N,XLR OUT GND*%
X130970000Y-74295000D03*
%TO.N,Net-(C5-Pad2)*%
X86520000Y-77470000D03*
X90330000Y-84455000D03*
%TO.N,XLR OUT GND*%
X128045000Y-73295000D03*
%TD*%
D13*
%TO.N,+15V*%
X66200000Y-75725000D02*
X67724000Y-77249000D01*
X67724000Y-77249000D02*
X68740000Y-77249000D01*
X66200000Y-70395000D02*
X66200000Y-75725000D01*
X68740000Y-77249000D02*
X68740000Y-76200000D01*
X68740000Y-78194500D02*
X68740000Y-77249000D01*
X128270000Y-65405000D02*
X64295000Y-65405000D01*
X134780000Y-71915000D02*
X128270000Y-65405000D01*
X134780000Y-78740000D02*
X134780000Y-71915000D01*
%TO.N,Net-(C5-Pad2)*%
X87790000Y-84455000D02*
X90330000Y-84455000D01*
X87155000Y-83820000D02*
X87790000Y-84455000D01*
X87155000Y-78105000D02*
X87155000Y-83820000D01*
X86520000Y-77470000D02*
X87155000Y-78105000D01*
%TD*%
%TA.AperFunction,Conductor*%
%TO.N,XLR OUT GND*%
G36*
X136975121Y-64155002D02*
G01*
X137021614Y-64208658D01*
X137033000Y-64261000D01*
X137033000Y-86869000D01*
X137012998Y-86937121D01*
X136959342Y-86983614D01*
X136907000Y-86995000D01*
X53466000Y-86995000D01*
X53397879Y-86974998D01*
X53351386Y-86921342D01*
X53340000Y-86869000D01*
X53340000Y-81246695D01*
X55947251Y-81246695D01*
X55947548Y-81251848D01*
X55947548Y-81251851D01*
X55953011Y-81346590D01*
X55960110Y-81469715D01*
X55961247Y-81474761D01*
X55961248Y-81474767D01*
X55981119Y-81562939D01*
X56009222Y-81687639D01*
X56093266Y-81894616D01*
X56209987Y-82085088D01*
X56356250Y-82253938D01*
X56360230Y-82257242D01*
X56364981Y-82261187D01*
X56404616Y-82320090D01*
X56406113Y-82391071D01*
X56368997Y-82451593D01*
X56328724Y-82476112D01*
X56213295Y-82519385D01*
X56096739Y-82606739D01*
X56009385Y-82723295D01*
X55958255Y-82859684D01*
X55951500Y-82921866D01*
X55951500Y-84718134D01*
X55958255Y-84780316D01*
X56009385Y-84916705D01*
X56096739Y-85033261D01*
X56213295Y-85120615D01*
X56349684Y-85171745D01*
X56411866Y-85178500D01*
X58208134Y-85178500D01*
X58270316Y-85171745D01*
X58406705Y-85120615D01*
X58523261Y-85033261D01*
X58610615Y-84916705D01*
X58661745Y-84780316D01*
X58668500Y-84718134D01*
X58668500Y-82921866D01*
X58661745Y-82859684D01*
X58610615Y-82723295D01*
X58523261Y-82606739D01*
X58406705Y-82519385D01*
X58394132Y-82514672D01*
X58288203Y-82474960D01*
X58231439Y-82432318D01*
X58206739Y-82365756D01*
X58221947Y-82296408D01*
X58243493Y-82267727D01*
X58344435Y-82167137D01*
X58348096Y-82163489D01*
X58407594Y-82080689D01*
X58475435Y-81986277D01*
X58478453Y-81982077D01*
X58577430Y-81781811D01*
X58642370Y-81568069D01*
X58671529Y-81346590D01*
X58673156Y-81280000D01*
X58654852Y-81057361D01*
X58600431Y-80840702D01*
X58511354Y-80635840D01*
X58453813Y-80546895D01*
X58392822Y-80452617D01*
X58392820Y-80452614D01*
X58390014Y-80448277D01*
X58239670Y-80283051D01*
X58235619Y-80279852D01*
X58235615Y-80279848D01*
X58068414Y-80147800D01*
X58068410Y-80147798D01*
X58064359Y-80144598D01*
X58023053Y-80121796D01*
X57973084Y-80071364D01*
X57958312Y-80001921D01*
X57983428Y-79935516D01*
X58010780Y-79908909D01*
X58054603Y-79877650D01*
X58189860Y-79781173D01*
X58348096Y-79623489D01*
X58357670Y-79610166D01*
X58475435Y-79446277D01*
X58478453Y-79442077D01*
X58488006Y-79422749D01*
X58575136Y-79246453D01*
X58575137Y-79246451D01*
X58577430Y-79241811D01*
X58642370Y-79028069D01*
X58671529Y-78806590D01*
X58673156Y-78740000D01*
X58654852Y-78517361D01*
X58600431Y-78300702D01*
X58511354Y-78095840D01*
X58450595Y-78001921D01*
X58392822Y-77912617D01*
X58392820Y-77912614D01*
X58390014Y-77908277D01*
X58239670Y-77743051D01*
X58235619Y-77739852D01*
X58235615Y-77739848D01*
X58068414Y-77607800D01*
X58068410Y-77607798D01*
X58064359Y-77604598D01*
X57868789Y-77496638D01*
X57863920Y-77494914D01*
X57863916Y-77494912D01*
X57663087Y-77423795D01*
X57663083Y-77423794D01*
X57658212Y-77422069D01*
X57653119Y-77421162D01*
X57653116Y-77421161D01*
X57443373Y-77383800D01*
X57443367Y-77383799D01*
X57438284Y-77382894D01*
X57364452Y-77381992D01*
X57220081Y-77380228D01*
X57220079Y-77380228D01*
X57214911Y-77380165D01*
X56994091Y-77413955D01*
X56781756Y-77483357D01*
X56583607Y-77586507D01*
X56579474Y-77589610D01*
X56579471Y-77589612D01*
X56409100Y-77717530D01*
X56404965Y-77720635D01*
X56344249Y-77784171D01*
X56262204Y-77870026D01*
X56250629Y-77882138D01*
X56247715Y-77886410D01*
X56247714Y-77886411D01*
X56229838Y-77912617D01*
X56124743Y-78066680D01*
X56088873Y-78143955D01*
X56036154Y-78257530D01*
X56030688Y-78269305D01*
X55970989Y-78484570D01*
X55947251Y-78706695D01*
X55947548Y-78711848D01*
X55947548Y-78711851D01*
X55953011Y-78806590D01*
X55960110Y-78929715D01*
X55961247Y-78934761D01*
X55961248Y-78934767D01*
X55980364Y-79019588D01*
X56009222Y-79147639D01*
X56093266Y-79354616D01*
X56095965Y-79359020D01*
X56203072Y-79533803D01*
X56209987Y-79545088D01*
X56356250Y-79713938D01*
X56528126Y-79856632D01*
X56584936Y-79889829D01*
X56601445Y-79899476D01*
X56650169Y-79951114D01*
X56663240Y-80020897D01*
X56636509Y-80086669D01*
X56596055Y-80120027D01*
X56583607Y-80126507D01*
X56579474Y-80129610D01*
X56579471Y-80129612D01*
X56409100Y-80257530D01*
X56404965Y-80260635D01*
X56250629Y-80422138D01*
X56247715Y-80426410D01*
X56247714Y-80426411D01*
X56229838Y-80452617D01*
X56124743Y-80606680D01*
X56030688Y-80809305D01*
X55970989Y-81024570D01*
X55947251Y-81246695D01*
X53340000Y-81246695D01*
X53340000Y-70395000D01*
X65286496Y-70395000D01*
X65306458Y-70584928D01*
X65365473Y-70766556D01*
X65460960Y-70931944D01*
X65534137Y-71013215D01*
X65564853Y-71077221D01*
X65566500Y-71097524D01*
X65566500Y-75646233D01*
X65565973Y-75657416D01*
X65564298Y-75664909D01*
X65564547Y-75672835D01*
X65564547Y-75672836D01*
X65566438Y-75732986D01*
X65566500Y-75736945D01*
X65566500Y-75764856D01*
X65566997Y-75768790D01*
X65566997Y-75768791D01*
X65567005Y-75768856D01*
X65567938Y-75780693D01*
X65569327Y-75824889D01*
X65572186Y-75834729D01*
X65574978Y-75844339D01*
X65578987Y-75863700D01*
X65581526Y-75883797D01*
X65584445Y-75891168D01*
X65584445Y-75891170D01*
X65597804Y-75924912D01*
X65601649Y-75936142D01*
X65613982Y-75978593D01*
X65618015Y-75985412D01*
X65618017Y-75985417D01*
X65624293Y-75996028D01*
X65632988Y-76013776D01*
X65640448Y-76032617D01*
X65645110Y-76039033D01*
X65645110Y-76039034D01*
X65666436Y-76068387D01*
X65672952Y-76078307D01*
X65695458Y-76116362D01*
X65709779Y-76130683D01*
X65722619Y-76145716D01*
X65734528Y-76162107D01*
X65768605Y-76190298D01*
X65777384Y-76198288D01*
X67220343Y-77641247D01*
X67227887Y-77649537D01*
X67232000Y-77656018D01*
X67237777Y-77661443D01*
X67281667Y-77702658D01*
X67284509Y-77705413D01*
X67304230Y-77725134D01*
X67307425Y-77727612D01*
X67316447Y-77735318D01*
X67348679Y-77765586D01*
X67355628Y-77769406D01*
X67366432Y-77775346D01*
X67382956Y-77786199D01*
X67398959Y-77798613D01*
X67439543Y-77816176D01*
X67450173Y-77821383D01*
X67488940Y-77842695D01*
X67496617Y-77844666D01*
X67496622Y-77844668D01*
X67508558Y-77847732D01*
X67527266Y-77854137D01*
X67545855Y-77862181D01*
X67553680Y-77863420D01*
X67553682Y-77863421D01*
X67589519Y-77869097D01*
X67601140Y-77871504D01*
X67636289Y-77880528D01*
X67643970Y-77882500D01*
X67664231Y-77882500D01*
X67683940Y-77884051D01*
X67703943Y-77887219D01*
X67711835Y-77886473D01*
X67719758Y-77886722D01*
X67719675Y-77889358D01*
X67776798Y-77900430D01*
X67828130Y-77949477D01*
X67844255Y-78025533D01*
X67826496Y-78194500D01*
X67827186Y-78201065D01*
X67845439Y-78374729D01*
X67846458Y-78384428D01*
X67905473Y-78566056D01*
X68000960Y-78731444D01*
X68128747Y-78873366D01*
X68283248Y-78985618D01*
X68289276Y-78988302D01*
X68289278Y-78988303D01*
X68433113Y-79052342D01*
X68457712Y-79063294D01*
X68551112Y-79083147D01*
X68638056Y-79101628D01*
X68638061Y-79101628D01*
X68644513Y-79103000D01*
X68835487Y-79103000D01*
X68841939Y-79101628D01*
X68841944Y-79101628D01*
X68928888Y-79083147D01*
X69022288Y-79063294D01*
X69046887Y-79052342D01*
X69190722Y-78988303D01*
X69190724Y-78988302D01*
X69196752Y-78985618D01*
X69351253Y-78873366D01*
X69479040Y-78731444D01*
X69574527Y-78566056D01*
X69633542Y-78384428D01*
X69634562Y-78374729D01*
X69652814Y-78201065D01*
X69653504Y-78194500D01*
X69635745Y-78025533D01*
X69634232Y-78011135D01*
X69634232Y-78011133D01*
X69633542Y-78004572D01*
X69574527Y-77822944D01*
X69560480Y-77798613D01*
X69517617Y-77724373D01*
X69479040Y-77657556D01*
X69405863Y-77576285D01*
X69375147Y-77512279D01*
X69373500Y-77491976D01*
X69373500Y-77470000D01*
X85606496Y-77470000D01*
X85607186Y-77476565D01*
X85624495Y-77641247D01*
X85626458Y-77659928D01*
X85685473Y-77841556D01*
X85688776Y-77847278D01*
X85688777Y-77847279D01*
X85711121Y-77885979D01*
X85780960Y-78006944D01*
X85785378Y-78011851D01*
X85785379Y-78011852D01*
X85857087Y-78091492D01*
X85908747Y-78148866D01*
X86063248Y-78261118D01*
X86069276Y-78263802D01*
X86069278Y-78263803D01*
X86163426Y-78305720D01*
X86237712Y-78338794D01*
X86421698Y-78377902D01*
X86484170Y-78411629D01*
X86518492Y-78473779D01*
X86521500Y-78501148D01*
X86521500Y-83741233D01*
X86520973Y-83752416D01*
X86519298Y-83759909D01*
X86519547Y-83767832D01*
X86519547Y-83767833D01*
X86521438Y-83827986D01*
X86521500Y-83831945D01*
X86521500Y-83859856D01*
X86521997Y-83863790D01*
X86521997Y-83863791D01*
X86522005Y-83863856D01*
X86522938Y-83875693D01*
X86524327Y-83919889D01*
X86529978Y-83939339D01*
X86533987Y-83958700D01*
X86536526Y-83978797D01*
X86539445Y-83986168D01*
X86539445Y-83986170D01*
X86552804Y-84019912D01*
X86556649Y-84031142D01*
X86568982Y-84073593D01*
X86573015Y-84080412D01*
X86573017Y-84080417D01*
X86579293Y-84091028D01*
X86587988Y-84108776D01*
X86595448Y-84127617D01*
X86600110Y-84134033D01*
X86600110Y-84134034D01*
X86621436Y-84163387D01*
X86627952Y-84173307D01*
X86650458Y-84211362D01*
X86664779Y-84225683D01*
X86677619Y-84240716D01*
X86689528Y-84257107D01*
X86723605Y-84285298D01*
X86732384Y-84293288D01*
X87286343Y-84847247D01*
X87293887Y-84855537D01*
X87298000Y-84862018D01*
X87303777Y-84867443D01*
X87347667Y-84908658D01*
X87350509Y-84911413D01*
X87370231Y-84931135D01*
X87373355Y-84933558D01*
X87373359Y-84933562D01*
X87373424Y-84933612D01*
X87382445Y-84941317D01*
X87414679Y-84971586D01*
X87421627Y-84975405D01*
X87421629Y-84975407D01*
X87432432Y-84981346D01*
X87448959Y-84992202D01*
X87458698Y-84999757D01*
X87458700Y-84999758D01*
X87464960Y-85004614D01*
X87505540Y-85022174D01*
X87516188Y-85027391D01*
X87536654Y-85038642D01*
X87554940Y-85048695D01*
X87562616Y-85050666D01*
X87562619Y-85050667D01*
X87574562Y-85053733D01*
X87593267Y-85060137D01*
X87611855Y-85068181D01*
X87619678Y-85069420D01*
X87619688Y-85069423D01*
X87655524Y-85075099D01*
X87667144Y-85077505D01*
X87702289Y-85086528D01*
X87709970Y-85088500D01*
X87730224Y-85088500D01*
X87749934Y-85090051D01*
X87769943Y-85093220D01*
X87777835Y-85092474D01*
X87813961Y-85089059D01*
X87825819Y-85088500D01*
X89621800Y-85088500D01*
X89689921Y-85108502D01*
X89709147Y-85124843D01*
X89709420Y-85124540D01*
X89714332Y-85128963D01*
X89718747Y-85133866D01*
X89873248Y-85246118D01*
X89879276Y-85248802D01*
X89879278Y-85248803D01*
X90041681Y-85321109D01*
X90047712Y-85323794D01*
X90141112Y-85343647D01*
X90228056Y-85362128D01*
X90228061Y-85362128D01*
X90234513Y-85363500D01*
X90425487Y-85363500D01*
X90431939Y-85362128D01*
X90431944Y-85362128D01*
X90518888Y-85343647D01*
X90612288Y-85323794D01*
X90618319Y-85321109D01*
X90780722Y-85248803D01*
X90780724Y-85248802D01*
X90786752Y-85246118D01*
X90941253Y-85133866D01*
X90977851Y-85093220D01*
X91064621Y-84996852D01*
X91064622Y-84996851D01*
X91069040Y-84991944D01*
X91144053Y-84862018D01*
X91161223Y-84832279D01*
X91161224Y-84832278D01*
X91164527Y-84826556D01*
X91223542Y-84644928D01*
X91243504Y-84455000D01*
X91223542Y-84265072D01*
X91164527Y-84083444D01*
X91069040Y-83918056D01*
X90991506Y-83831945D01*
X90945675Y-83781045D01*
X90945674Y-83781044D01*
X90941253Y-83776134D01*
X90786752Y-83663882D01*
X90780724Y-83661198D01*
X90780722Y-83661197D01*
X90618319Y-83588891D01*
X90618318Y-83588891D01*
X90612288Y-83586206D01*
X90518888Y-83566353D01*
X90431944Y-83547872D01*
X90431939Y-83547872D01*
X90425487Y-83546500D01*
X90234513Y-83546500D01*
X90228061Y-83547872D01*
X90228056Y-83547872D01*
X90141112Y-83566353D01*
X90047712Y-83586206D01*
X90041682Y-83588891D01*
X90041681Y-83588891D01*
X89879278Y-83661197D01*
X89879276Y-83661198D01*
X89873248Y-83663882D01*
X89718747Y-83776134D01*
X89714332Y-83781037D01*
X89709420Y-83785460D01*
X89708295Y-83784211D01*
X89654986Y-83817051D01*
X89621800Y-83821500D01*
X88104595Y-83821500D01*
X88036474Y-83801498D01*
X88015499Y-83784595D01*
X87825404Y-83594499D01*
X87791379Y-83532187D01*
X87788500Y-83505404D01*
X87788500Y-79246695D01*
X112077251Y-79246695D01*
X112077548Y-79251848D01*
X112077548Y-79251851D01*
X112083727Y-79359020D01*
X112090110Y-79469715D01*
X112091247Y-79474761D01*
X112091248Y-79474767D01*
X112111119Y-79562939D01*
X112139222Y-79687639D01*
X112223266Y-79894616D01*
X112339987Y-80085088D01*
X112486250Y-80253938D01*
X112658126Y-80396632D01*
X112851000Y-80509338D01*
X113059692Y-80589030D01*
X113064760Y-80590061D01*
X113064763Y-80590062D01*
X113172017Y-80611883D01*
X113278597Y-80633567D01*
X113283772Y-80633757D01*
X113283774Y-80633757D01*
X113496673Y-80641564D01*
X113496677Y-80641564D01*
X113501837Y-80641753D01*
X113506957Y-80641097D01*
X113506959Y-80641097D01*
X113718288Y-80614025D01*
X113718289Y-80614025D01*
X113723416Y-80613368D01*
X113759971Y-80602401D01*
X113932429Y-80550661D01*
X113932434Y-80550659D01*
X113937384Y-80549174D01*
X114137994Y-80450896D01*
X114319860Y-80321173D01*
X114358116Y-80283051D01*
X114474435Y-80167137D01*
X114478096Y-80163489D01*
X114491671Y-80144598D01*
X114605435Y-79986277D01*
X114608453Y-79982077D01*
X114669162Y-79859242D01*
X114705136Y-79786453D01*
X114705137Y-79786451D01*
X114707430Y-79781811D01*
X114772370Y-79568069D01*
X114801529Y-79346590D01*
X114803156Y-79280000D01*
X114784852Y-79057361D01*
X114730431Y-78840702D01*
X114641354Y-78635840D01*
X114568045Y-78522522D01*
X114522822Y-78452617D01*
X114522820Y-78452614D01*
X114520014Y-78448277D01*
X114369670Y-78283051D01*
X114365619Y-78279852D01*
X114365615Y-78279848D01*
X114198414Y-78147800D01*
X114198410Y-78147798D01*
X114194359Y-78144598D01*
X114153053Y-78121796D01*
X114103084Y-78071364D01*
X114088312Y-78001921D01*
X114113428Y-77935516D01*
X114140780Y-77908909D01*
X114206290Y-77862181D01*
X114319860Y-77781173D01*
X114325708Y-77775346D01*
X114427100Y-77674307D01*
X114478096Y-77623489D01*
X114491671Y-77604598D01*
X114605435Y-77446277D01*
X114608453Y-77442077D01*
X114617489Y-77423795D01*
X114705136Y-77246453D01*
X114705137Y-77246451D01*
X114707430Y-77241811D01*
X114772370Y-77028069D01*
X114801529Y-76806590D01*
X114803156Y-76740000D01*
X114784852Y-76517361D01*
X114730431Y-76300702D01*
X114641354Y-76095840D01*
X114569918Y-75985417D01*
X114522822Y-75912617D01*
X114522820Y-75912614D01*
X114520014Y-75908277D01*
X114516540Y-75904459D01*
X114516533Y-75904450D01*
X114372435Y-75746088D01*
X114341383Y-75682242D01*
X114349779Y-75611744D01*
X114394956Y-75556976D01*
X114421400Y-75543307D01*
X114528052Y-75503325D01*
X114543649Y-75494786D01*
X114645724Y-75418285D01*
X114658285Y-75405724D01*
X114734786Y-75303649D01*
X114743324Y-75288054D01*
X114788478Y-75167606D01*
X114792105Y-75152351D01*
X114797631Y-75101486D01*
X114798000Y-75094672D01*
X114798000Y-74472115D01*
X114793525Y-74456876D01*
X114792135Y-74455671D01*
X114784452Y-74454000D01*
X112100116Y-74454000D01*
X112084877Y-74458475D01*
X112083672Y-74459865D01*
X112082001Y-74467548D01*
X112082001Y-75094669D01*
X112082371Y-75101490D01*
X112087895Y-75152352D01*
X112091521Y-75167604D01*
X112136676Y-75288054D01*
X112145214Y-75303649D01*
X112221715Y-75405724D01*
X112234276Y-75418285D01*
X112336351Y-75494786D01*
X112351946Y-75503324D01*
X112460827Y-75544142D01*
X112517591Y-75586784D01*
X112542291Y-75653345D01*
X112527083Y-75722694D01*
X112507691Y-75749175D01*
X112384200Y-75878401D01*
X112380629Y-75882138D01*
X112377715Y-75886410D01*
X112377714Y-75886411D01*
X112347686Y-75930431D01*
X112254743Y-76066680D01*
X112229077Y-76121973D01*
X112172207Y-76244490D01*
X112160688Y-76269305D01*
X112100989Y-76484570D01*
X112077251Y-76706695D01*
X112077548Y-76711848D01*
X112077548Y-76711851D01*
X112083011Y-76806590D01*
X112090110Y-76929715D01*
X112091247Y-76934761D01*
X112091248Y-76934767D01*
X112111119Y-77022939D01*
X112139222Y-77147639D01*
X112223266Y-77354616D01*
X112238961Y-77380228D01*
X112337079Y-77540342D01*
X112339987Y-77545088D01*
X112486250Y-77713938D01*
X112658126Y-77856632D01*
X112702394Y-77882500D01*
X112731445Y-77899476D01*
X112780169Y-77951114D01*
X112793240Y-78020897D01*
X112766509Y-78086669D01*
X112726055Y-78120027D01*
X112713607Y-78126507D01*
X112709474Y-78129610D01*
X112709471Y-78129612D01*
X112539100Y-78257530D01*
X112534965Y-78260635D01*
X112526680Y-78269305D01*
X112390672Y-78411629D01*
X112380629Y-78422138D01*
X112377715Y-78426410D01*
X112377714Y-78426411D01*
X112326732Y-78501148D01*
X112254743Y-78606680D01*
X112239003Y-78640590D01*
X112194552Y-78736352D01*
X112160688Y-78809305D01*
X112100989Y-79024570D01*
X112077251Y-79246695D01*
X87788500Y-79246695D01*
X87788500Y-78183768D01*
X87789027Y-78172585D01*
X87790702Y-78165092D01*
X87788562Y-78097001D01*
X87788500Y-78093044D01*
X87788500Y-78065144D01*
X87787996Y-78061153D01*
X87787063Y-78049311D01*
X87786248Y-78023357D01*
X87785674Y-78005111D01*
X87780021Y-77985652D01*
X87776012Y-77966293D01*
X87775846Y-77964983D01*
X87773474Y-77946203D01*
X87770558Y-77938837D01*
X87770556Y-77938831D01*
X87757200Y-77905098D01*
X87753355Y-77893868D01*
X87743230Y-77859017D01*
X87743230Y-77859016D01*
X87741019Y-77851407D01*
X87735193Y-77841556D01*
X87730705Y-77833966D01*
X87722008Y-77816213D01*
X87717472Y-77804758D01*
X87714552Y-77797383D01*
X87688563Y-77761612D01*
X87682047Y-77751692D01*
X87676937Y-77743051D01*
X87659542Y-77713638D01*
X87645221Y-77699317D01*
X87632380Y-77684283D01*
X87625132Y-77674307D01*
X87620472Y-77667893D01*
X87586401Y-77639707D01*
X87577622Y-77631718D01*
X87467122Y-77521218D01*
X87433096Y-77458906D01*
X87430907Y-77445293D01*
X87430082Y-77437438D01*
X87413542Y-77280072D01*
X87354527Y-77098444D01*
X87259040Y-76933056D01*
X87251379Y-76924547D01*
X87135675Y-76796045D01*
X87135674Y-76796044D01*
X87131253Y-76791134D01*
X86976752Y-76678882D01*
X86970724Y-76676198D01*
X86970722Y-76676197D01*
X86808319Y-76603891D01*
X86808318Y-76603891D01*
X86802288Y-76601206D01*
X86689721Y-76577279D01*
X86621944Y-76562872D01*
X86621939Y-76562872D01*
X86615487Y-76561500D01*
X86424513Y-76561500D01*
X86418061Y-76562872D01*
X86418056Y-76562872D01*
X86350279Y-76577279D01*
X86237712Y-76601206D01*
X86231682Y-76603891D01*
X86231681Y-76603891D01*
X86069278Y-76676197D01*
X86069276Y-76676198D01*
X86063248Y-76678882D01*
X85908747Y-76791134D01*
X85904326Y-76796044D01*
X85904325Y-76796045D01*
X85788622Y-76924547D01*
X85780960Y-76933056D01*
X85685473Y-77098444D01*
X85626458Y-77280072D01*
X85606496Y-77470000D01*
X69373500Y-77470000D01*
X69373500Y-77320793D01*
X69375732Y-77297184D01*
X69375790Y-77296881D01*
X69375790Y-77296877D01*
X69377275Y-77289094D01*
X69373749Y-77233049D01*
X69373500Y-77225138D01*
X69373500Y-76902524D01*
X69393502Y-76834403D01*
X69405858Y-76818221D01*
X69479040Y-76736944D01*
X69574527Y-76571556D01*
X69633542Y-76389928D01*
X69653504Y-76200000D01*
X69643056Y-76100590D01*
X69634232Y-76016635D01*
X69634232Y-76016633D01*
X69633542Y-76010072D01*
X69574527Y-75828444D01*
X69567903Y-75816970D01*
X69482341Y-75668774D01*
X69479040Y-75663056D01*
X69410365Y-75586784D01*
X69355675Y-75526045D01*
X69355674Y-75526044D01*
X69351253Y-75521134D01*
X69209694Y-75418285D01*
X69202094Y-75412763D01*
X69202093Y-75412762D01*
X69196752Y-75408882D01*
X69190724Y-75406198D01*
X69190722Y-75406197D01*
X69028319Y-75333891D01*
X69028318Y-75333891D01*
X69022288Y-75331206D01*
X68928887Y-75311353D01*
X68841944Y-75292872D01*
X68841939Y-75292872D01*
X68835487Y-75291500D01*
X68644513Y-75291500D01*
X68638061Y-75292872D01*
X68638056Y-75292872D01*
X68551113Y-75311353D01*
X68457712Y-75331206D01*
X68451682Y-75333891D01*
X68451681Y-75333891D01*
X68289278Y-75406197D01*
X68289276Y-75406198D01*
X68283248Y-75408882D01*
X68277907Y-75412762D01*
X68277906Y-75412763D01*
X68270306Y-75418285D01*
X68128747Y-75521134D01*
X68124326Y-75526044D01*
X68124325Y-75526045D01*
X68069636Y-75586784D01*
X68000960Y-75663056D01*
X67997659Y-75668774D01*
X67912098Y-75816970D01*
X67905473Y-75828444D01*
X67846458Y-76010072D01*
X67845768Y-76016633D01*
X67845768Y-76016635D01*
X67829800Y-76168565D01*
X67802787Y-76234222D01*
X67744565Y-76274852D01*
X67673620Y-76277555D01*
X67615395Y-76244490D01*
X66870405Y-75499500D01*
X66836379Y-75437188D01*
X66833500Y-75410405D01*
X66833500Y-73927885D01*
X112082000Y-73927885D01*
X112086475Y-73943124D01*
X112087865Y-73944329D01*
X112095548Y-73946000D01*
X113167885Y-73946000D01*
X113183124Y-73941525D01*
X113184329Y-73940135D01*
X113186000Y-73932452D01*
X113186000Y-73927885D01*
X113694000Y-73927885D01*
X113698475Y-73943124D01*
X113699865Y-73944329D01*
X113707548Y-73946000D01*
X114779884Y-73946000D01*
X114795123Y-73941525D01*
X114796328Y-73940135D01*
X114797999Y-73932452D01*
X114797999Y-73305331D01*
X114797629Y-73298510D01*
X114792105Y-73247648D01*
X114788479Y-73232396D01*
X114743324Y-73111946D01*
X114734786Y-73096351D01*
X114658285Y-72994276D01*
X114645724Y-72981715D01*
X114543649Y-72905214D01*
X114528054Y-72896676D01*
X114407606Y-72851522D01*
X114392351Y-72847895D01*
X114341486Y-72842369D01*
X114334672Y-72842000D01*
X113712115Y-72842000D01*
X113696876Y-72846475D01*
X113695671Y-72847865D01*
X113694000Y-72855548D01*
X113694000Y-73927885D01*
X113186000Y-73927885D01*
X113186000Y-72860116D01*
X113181525Y-72844877D01*
X113180135Y-72843672D01*
X113172452Y-72842001D01*
X112545331Y-72842001D01*
X112538510Y-72842371D01*
X112487648Y-72847895D01*
X112472396Y-72851521D01*
X112351946Y-72896676D01*
X112336351Y-72905214D01*
X112234276Y-72981715D01*
X112221715Y-72994276D01*
X112145214Y-73096351D01*
X112136676Y-73111946D01*
X112091522Y-73232394D01*
X112087895Y-73247649D01*
X112082369Y-73298514D01*
X112082000Y-73305328D01*
X112082000Y-73927885D01*
X66833500Y-73927885D01*
X66833500Y-71097524D01*
X66853502Y-71029403D01*
X66865858Y-71013221D01*
X66939040Y-70931944D01*
X67034527Y-70766556D01*
X67093542Y-70584928D01*
X67113504Y-70395000D01*
X67093542Y-70205072D01*
X67034527Y-70023444D01*
X66939040Y-69858056D01*
X66811253Y-69716134D01*
X66656752Y-69603882D01*
X66650724Y-69601198D01*
X66650722Y-69601197D01*
X66488319Y-69528891D01*
X66488318Y-69528891D01*
X66482288Y-69526206D01*
X66388887Y-69506353D01*
X66301944Y-69487872D01*
X66301939Y-69487872D01*
X66295487Y-69486500D01*
X66104513Y-69486500D01*
X66098061Y-69487872D01*
X66098056Y-69487872D01*
X66011113Y-69506353D01*
X65917712Y-69526206D01*
X65911682Y-69528891D01*
X65911681Y-69528891D01*
X65749278Y-69601197D01*
X65749276Y-69601198D01*
X65743248Y-69603882D01*
X65588747Y-69716134D01*
X65460960Y-69858056D01*
X65365473Y-70023444D01*
X65306458Y-70205072D01*
X65286496Y-70395000D01*
X53340000Y-70395000D01*
X53340000Y-65405000D01*
X63381496Y-65405000D01*
X63401458Y-65594928D01*
X63460473Y-65776556D01*
X63555960Y-65941944D01*
X63683747Y-66083866D01*
X63838248Y-66196118D01*
X63844276Y-66198802D01*
X63844278Y-66198803D01*
X64006681Y-66271109D01*
X64012712Y-66273794D01*
X64106112Y-66293647D01*
X64193056Y-66312128D01*
X64193061Y-66312128D01*
X64199513Y-66313500D01*
X64390487Y-66313500D01*
X64396939Y-66312128D01*
X64396944Y-66312128D01*
X64483888Y-66293647D01*
X64577288Y-66273794D01*
X64583319Y-66271109D01*
X64745722Y-66198803D01*
X64745724Y-66198802D01*
X64751752Y-66196118D01*
X64906253Y-66083866D01*
X64910668Y-66078963D01*
X64915580Y-66074540D01*
X64916705Y-66075789D01*
X64970014Y-66042949D01*
X65003200Y-66038500D01*
X127955406Y-66038500D01*
X128023527Y-66058502D01*
X128044501Y-66075405D01*
X134109595Y-72140499D01*
X134143621Y-72202811D01*
X134146500Y-72229594D01*
X134146500Y-78037476D01*
X134126498Y-78105597D01*
X134114142Y-78121779D01*
X134040960Y-78203056D01*
X133945473Y-78368444D01*
X133886458Y-78550072D01*
X133885768Y-78556633D01*
X133885768Y-78556635D01*
X133876944Y-78640590D01*
X133866496Y-78740000D01*
X133867186Y-78746565D01*
X133873844Y-78809908D01*
X133886458Y-78929928D01*
X133945473Y-79111556D01*
X133948776Y-79117278D01*
X133948777Y-79117279D01*
X133969069Y-79152425D01*
X134040960Y-79276944D01*
X134168747Y-79418866D01*
X134323248Y-79531118D01*
X134329276Y-79533802D01*
X134329278Y-79533803D01*
X134491681Y-79606109D01*
X134497712Y-79608794D01*
X134584009Y-79627137D01*
X134678056Y-79647128D01*
X134678061Y-79647128D01*
X134684513Y-79648500D01*
X134875487Y-79648500D01*
X134881939Y-79647128D01*
X134881944Y-79647128D01*
X134975991Y-79627137D01*
X135062288Y-79608794D01*
X135068319Y-79606109D01*
X135230722Y-79533803D01*
X135230724Y-79533802D01*
X135236752Y-79531118D01*
X135391253Y-79418866D01*
X135519040Y-79276944D01*
X135590931Y-79152425D01*
X135611223Y-79117279D01*
X135611224Y-79117278D01*
X135614527Y-79111556D01*
X135673542Y-78929928D01*
X135686157Y-78809908D01*
X135692814Y-78746565D01*
X135693504Y-78740000D01*
X135683056Y-78640590D01*
X135674232Y-78556635D01*
X135674232Y-78556633D01*
X135673542Y-78550072D01*
X135614527Y-78368444D01*
X135519040Y-78203056D01*
X135445863Y-78121785D01*
X135415147Y-78057779D01*
X135413500Y-78037476D01*
X135413500Y-71993767D01*
X135414027Y-71982584D01*
X135415702Y-71975091D01*
X135413562Y-71907014D01*
X135413500Y-71903055D01*
X135413500Y-71875144D01*
X135412995Y-71871144D01*
X135412062Y-71859301D01*
X135410922Y-71823029D01*
X135410673Y-71815110D01*
X135405022Y-71795658D01*
X135401014Y-71776306D01*
X135399467Y-71764063D01*
X135398474Y-71756203D01*
X135395556Y-71748832D01*
X135382200Y-71715097D01*
X135378355Y-71703870D01*
X135377721Y-71701687D01*
X135366018Y-71661407D01*
X135361984Y-71654585D01*
X135361981Y-71654579D01*
X135355706Y-71643968D01*
X135347010Y-71626218D01*
X135342472Y-71614756D01*
X135342469Y-71614751D01*
X135339552Y-71607383D01*
X135313573Y-71571625D01*
X135307057Y-71561707D01*
X135288575Y-71530457D01*
X135284542Y-71523637D01*
X135270218Y-71509313D01*
X135257376Y-71494278D01*
X135245472Y-71477893D01*
X135211406Y-71449711D01*
X135202627Y-71441722D01*
X128773652Y-65012747D01*
X128766112Y-65004461D01*
X128762000Y-64997982D01*
X128712348Y-64951356D01*
X128709507Y-64948602D01*
X128689770Y-64928865D01*
X128686573Y-64926385D01*
X128677551Y-64918680D01*
X128651100Y-64893841D01*
X128645321Y-64888414D01*
X128638375Y-64884595D01*
X128638372Y-64884593D01*
X128627566Y-64878652D01*
X128611047Y-64867801D01*
X128605048Y-64863148D01*
X128595041Y-64855386D01*
X128587772Y-64852241D01*
X128587768Y-64852238D01*
X128554463Y-64837826D01*
X128543813Y-64832609D01*
X128505060Y-64811305D01*
X128485437Y-64806267D01*
X128466734Y-64799863D01*
X128455420Y-64794967D01*
X128455419Y-64794967D01*
X128448145Y-64791819D01*
X128440322Y-64790580D01*
X128440312Y-64790577D01*
X128404476Y-64784901D01*
X128392856Y-64782495D01*
X128357711Y-64773472D01*
X128357710Y-64773472D01*
X128350030Y-64771500D01*
X128329776Y-64771500D01*
X128310065Y-64769949D01*
X128297886Y-64768020D01*
X128290057Y-64766780D01*
X128282165Y-64767526D01*
X128246039Y-64770941D01*
X128234181Y-64771500D01*
X65003200Y-64771500D01*
X64935079Y-64751498D01*
X64915853Y-64735157D01*
X64915580Y-64735460D01*
X64910668Y-64731037D01*
X64906253Y-64726134D01*
X64751752Y-64613882D01*
X64745724Y-64611198D01*
X64745722Y-64611197D01*
X64583319Y-64538891D01*
X64583318Y-64538891D01*
X64577288Y-64536206D01*
X64483888Y-64516353D01*
X64396944Y-64497872D01*
X64396939Y-64497872D01*
X64390487Y-64496500D01*
X64199513Y-64496500D01*
X64193061Y-64497872D01*
X64193056Y-64497872D01*
X64106112Y-64516353D01*
X64012712Y-64536206D01*
X64006682Y-64538891D01*
X64006681Y-64538891D01*
X63844278Y-64611197D01*
X63844276Y-64611198D01*
X63838248Y-64613882D01*
X63683747Y-64726134D01*
X63679326Y-64731044D01*
X63679325Y-64731045D01*
X63570203Y-64852238D01*
X63555960Y-64868056D01*
X63460473Y-65033444D01*
X63401458Y-65215072D01*
X63381496Y-65405000D01*
X53340000Y-65405000D01*
X53340000Y-64261000D01*
X53360002Y-64192879D01*
X53413658Y-64146386D01*
X53466000Y-64135000D01*
X136907000Y-64135000D01*
X136975121Y-64155002D01*
G37*
%TD.AperFunction*%
%TD*%
M02*
