%TF.GenerationSoftware,KiCad,Pcbnew,(6.0.1)*%
%TF.CreationDate,2022-02-18T16:05:49+00:00*%
%TF.ProjectId,Microphone Booster,4d696372-6f70-4686-9f6e-6520426f6f73,rev?*%
%TF.SameCoordinates,Original*%
%TF.FileFunction,Copper,L1,Top*%
%TF.FilePolarity,Positive*%
%FSLAX46Y46*%
G04 Gerber Fmt 4.6, Leading zero omitted, Abs format (unit mm)*
G04 Created by KiCad (PCBNEW (6.0.1)) date 2022-02-18 16:05:49*
%MOMM*%
%LPD*%
G01*
G04 APERTURE LIST*
G04 Aperture macros list*
%AMRoundRect*
0 Rectangle with rounded corners*
0 $1 Rounding radius*
0 $2 $3 $4 $5 $6 $7 $8 $9 X,Y pos of 4 corners*
0 Add a 4 corners polygon primitive as box body*
4,1,4,$2,$3,$4,$5,$6,$7,$8,$9,$2,$3,0*
0 Add four circle primitives for the rounded corners*
1,1,$1+$1,$2,$3*
1,1,$1+$1,$4,$5*
1,1,$1+$1,$6,$7*
1,1,$1+$1,$8,$9*
0 Add four rect primitives between the rounded corners*
20,1,$1+$1,$2,$3,$4,$5,0*
20,1,$1+$1,$4,$5,$6,$7,0*
20,1,$1+$1,$6,$7,$8,$9,0*
20,1,$1+$1,$8,$9,$2,$3,0*%
%AMFreePoly0*
4,1,9,5.362500,-0.866500,1.237500,-0.866500,1.237500,-0.450000,-1.237500,-0.450000,-1.237500,0.450000,1.237500,0.450000,1.237500,0.866500,5.362500,0.866500,5.362500,-0.866500,5.362500,-0.866500,$1*%
G04 Aperture macros list end*
%ADD10C,0.300000*%
%TA.AperFunction,NonConductor*%
%ADD11C,0.300000*%
%TD*%
%TA.AperFunction,SMDPad,CuDef*%
%ADD12R,0.800000X1.900000*%
%TD*%
%TA.AperFunction,SMDPad,CuDef*%
%ADD13R,1.900000X0.800000*%
%TD*%
%TA.AperFunction,SMDPad,CuDef*%
%ADD14RoundRect,0.250000X1.050000X0.550000X-1.050000X0.550000X-1.050000X-0.550000X1.050000X-0.550000X0*%
%TD*%
%TA.AperFunction,ComponentPad*%
%ADD15R,1.700000X1.700000*%
%TD*%
%TA.AperFunction,ComponentPad*%
%ADD16O,1.700000X1.700000*%
%TD*%
%TA.AperFunction,SMDPad,CuDef*%
%ADD17R,2.100000X2.600000*%
%TD*%
%TA.AperFunction,SMDPad,CuDef*%
%ADD18RoundRect,0.250000X-0.350000X-0.450000X0.350000X-0.450000X0.350000X0.450000X-0.350000X0.450000X0*%
%TD*%
%TA.AperFunction,SMDPad,CuDef*%
%ADD19RoundRect,0.250000X0.450000X-0.350000X0.450000X0.350000X-0.450000X0.350000X-0.450000X-0.350000X0*%
%TD*%
%TA.AperFunction,SMDPad,CuDef*%
%ADD20RoundRect,0.250000X0.350000X0.450000X-0.350000X0.450000X-0.350000X-0.450000X0.350000X-0.450000X0*%
%TD*%
%TA.AperFunction,SMDPad,CuDef*%
%ADD21R,2.600000X2.100000*%
%TD*%
%TA.AperFunction,SMDPad,CuDef*%
%ADD22RoundRect,0.250000X-0.450000X0.350000X-0.450000X-0.350000X0.450000X-0.350000X0.450000X0.350000X0*%
%TD*%
%TA.AperFunction,SMDPad,CuDef*%
%ADD23R,2.300000X0.900000*%
%TD*%
%TA.AperFunction,SMDPad,CuDef*%
%ADD24FreePoly0,180.000000*%
%TD*%
%TA.AperFunction,SMDPad,CuDef*%
%ADD25R,0.800000X0.900000*%
%TD*%
%TA.AperFunction,SMDPad,CuDef*%
%ADD26RoundRect,0.237500X0.237500X-0.300000X0.237500X0.300000X-0.237500X0.300000X-0.237500X-0.300000X0*%
%TD*%
%TA.AperFunction,SMDPad,CuDef*%
%ADD27RoundRect,0.250000X-0.550000X1.500000X-0.550000X-1.500000X0.550000X-1.500000X0.550000X1.500000X0*%
%TD*%
%TA.AperFunction,SMDPad,CuDef*%
%ADD28RoundRect,0.250000X0.550000X-1.500000X0.550000X1.500000X-0.550000X1.500000X-0.550000X-1.500000X0*%
%TD*%
%TA.AperFunction,SMDPad,CuDef*%
%ADD29RoundRect,0.250000X1.500000X0.550000X-1.500000X0.550000X-1.500000X-0.550000X1.500000X-0.550000X0*%
%TD*%
%TA.AperFunction,SMDPad,CuDef*%
%ADD30RoundRect,0.237500X0.300000X0.237500X-0.300000X0.237500X-0.300000X-0.237500X0.300000X-0.237500X0*%
%TD*%
%TA.AperFunction,SMDPad,CuDef*%
%ADD31RoundRect,0.250000X1.000000X-1.750000X1.000000X1.750000X-1.000000X1.750000X-1.000000X-1.750000X0*%
%TD*%
%TA.AperFunction,ViaPad*%
%ADD32C,0.800000*%
%TD*%
%TA.AperFunction,Conductor*%
%ADD33C,0.250000*%
%TD*%
%TA.AperFunction,Conductor*%
%ADD34C,0.750000*%
%TD*%
G04 APERTURE END LIST*
D10*
D11*
X110483571Y-85641571D02*
X110483571Y-84141571D01*
X111197857Y-85641571D02*
X111197857Y-84141571D01*
X112055000Y-85641571D01*
X112055000Y-84141571D01*
X113269285Y-84855857D02*
X112769285Y-84855857D01*
X112769285Y-85641571D02*
X112769285Y-84141571D01*
X113483571Y-84141571D01*
X114055000Y-85641571D02*
X114055000Y-84141571D01*
X114769285Y-85641571D02*
X114769285Y-84141571D01*
X115626428Y-85641571D01*
X115626428Y-84141571D01*
X116340714Y-84141571D02*
X116340714Y-85355857D01*
X116412142Y-85498714D01*
X116483571Y-85570142D01*
X116626428Y-85641571D01*
X116912142Y-85641571D01*
X117055000Y-85570142D01*
X117126428Y-85498714D01*
X117197857Y-85355857D01*
X117197857Y-84141571D01*
X117840714Y-85570142D02*
X118055000Y-85641571D01*
X118412142Y-85641571D01*
X118555000Y-85570142D01*
X118626428Y-85498714D01*
X118697857Y-85355857D01*
X118697857Y-85213000D01*
X118626428Y-85070142D01*
X118555000Y-84998714D01*
X118412142Y-84927285D01*
X118126428Y-84855857D01*
X117983571Y-84784428D01*
X117912142Y-84713000D01*
X117840714Y-84570142D01*
X117840714Y-84427285D01*
X117912142Y-84284428D01*
X117983571Y-84213000D01*
X118126428Y-84141571D01*
X118483571Y-84141571D01*
X118697857Y-84213000D01*
X120483571Y-84855857D02*
X120983571Y-84855857D01*
X121197857Y-85641571D02*
X120483571Y-85641571D01*
X120483571Y-84141571D01*
X121197857Y-84141571D01*
X122555000Y-85641571D02*
X121840714Y-85641571D01*
X121840714Y-84141571D01*
X123055000Y-84855857D02*
X123555000Y-84855857D01*
X123769285Y-85641571D02*
X123055000Y-85641571D01*
X123055000Y-84141571D01*
X123769285Y-84141571D01*
X125269285Y-85498714D02*
X125197857Y-85570142D01*
X124983571Y-85641571D01*
X124840714Y-85641571D01*
X124626428Y-85570142D01*
X124483571Y-85427285D01*
X124412142Y-85284428D01*
X124340714Y-84998714D01*
X124340714Y-84784428D01*
X124412142Y-84498714D01*
X124483571Y-84355857D01*
X124626428Y-84213000D01*
X124840714Y-84141571D01*
X124983571Y-84141571D01*
X125197857Y-84213000D01*
X125269285Y-84284428D01*
X125697857Y-84141571D02*
X126555000Y-84141571D01*
X126126428Y-85641571D02*
X126126428Y-84141571D01*
X127912142Y-85641571D02*
X127412142Y-84927285D01*
X127055000Y-85641571D02*
X127055000Y-84141571D01*
X127626428Y-84141571D01*
X127769285Y-84213000D01*
X127840714Y-84284428D01*
X127912142Y-84427285D01*
X127912142Y-84641571D01*
X127840714Y-84784428D01*
X127769285Y-84855857D01*
X127626428Y-84927285D01*
X127055000Y-84927285D01*
X128840714Y-84141571D02*
X129126428Y-84141571D01*
X129269285Y-84213000D01*
X129412142Y-84355857D01*
X129483571Y-84641571D01*
X129483571Y-85141571D01*
X129412142Y-85427285D01*
X129269285Y-85570142D01*
X129126428Y-85641571D01*
X128840714Y-85641571D01*
X128697857Y-85570142D01*
X128555000Y-85427285D01*
X128483571Y-85141571D01*
X128483571Y-84641571D01*
X128555000Y-84355857D01*
X128697857Y-84213000D01*
X128840714Y-84141571D01*
X130126428Y-85641571D02*
X130126428Y-84141571D01*
X130983571Y-85641571D01*
X130983571Y-84141571D01*
X131697857Y-85641571D02*
X131697857Y-84141571D01*
X133269285Y-85498714D02*
X133197857Y-85570142D01*
X132983571Y-85641571D01*
X132840714Y-85641571D01*
X132626428Y-85570142D01*
X132483571Y-85427285D01*
X132412142Y-85284428D01*
X132340714Y-84998714D01*
X132340714Y-84784428D01*
X132412142Y-84498714D01*
X132483571Y-84355857D01*
X132626428Y-84213000D01*
X132840714Y-84141571D01*
X132983571Y-84141571D01*
X133197857Y-84213000D01*
X133269285Y-84284428D01*
X133840714Y-85570142D02*
X134055000Y-85641571D01*
X134412142Y-85641571D01*
X134555000Y-85570142D01*
X134626428Y-85498714D01*
X134697857Y-85355857D01*
X134697857Y-85213000D01*
X134626428Y-85070142D01*
X134555000Y-84998714D01*
X134412142Y-84927285D01*
X134126428Y-84855857D01*
X133983571Y-84784428D01*
X133912142Y-84713000D01*
X133840714Y-84570142D01*
X133840714Y-84427285D01*
X133912142Y-84284428D01*
X133983571Y-84213000D01*
X134126428Y-84141571D01*
X134483571Y-84141571D01*
X134697857Y-84213000D01*
D12*
%TO.P,Q6,1,B*%
%TO.N,Net-(Q5-Pad1)*%
X121375000Y-73065000D03*
%TO.P,Q6,2,C*%
%TO.N,XLR OUT HOT*%
X119475000Y-73065000D03*
%TO.P,Q6,3,E*%
%TO.N,+15V*%
X120425000Y-76065000D03*
%TD*%
D13*
%TO.P,Q5,1,B*%
%TO.N,Net-(Q5-Pad1)*%
X124640000Y-78695000D03*
%TO.P,Q5,2,C*%
%TO.N,XLR OUT COLD*%
X124640000Y-80595000D03*
%TO.P,Q5,3,E*%
%TO.N,+15V*%
X127640000Y-79645000D03*
%TD*%
D14*
%TO.P,C6,1*%
%TO.N,Net-(Q5-Pad1)*%
X114449000Y-67183000D03*
%TO.P,C6,2*%
%TO.N,XLR OUT GND*%
X110849000Y-67183000D03*
%TD*%
D15*
%TO.P,J2,1,Pin_1*%
%TO.N,XLR OUT GND*%
X113440000Y-74200000D03*
D16*
%TO.P,J2,2,Pin_2*%
%TO.N,XLR OUT HOT*%
X113440000Y-76740000D03*
%TO.P,J2,3,Pin_3*%
%TO.N,XLR OUT COLD*%
X113440000Y-79280000D03*
%TD*%
%TO.P,J1,3,Pin_3*%
%TO.N,XLR IN COLD*%
X57310000Y-78740000D03*
%TO.P,J1,2,Pin_2*%
%TO.N,XLR IN HOT*%
X57310000Y-81280000D03*
D15*
%TO.P,J1,1,Pin_1*%
%TO.N,XLR IN GND*%
X57310000Y-83820000D03*
%TD*%
D17*
%TO.P,R16,2*%
%TO.N,XLR OUT GND*%
X77540000Y-68580000D03*
%TO.P,R16,1*%
%TO.N,XLR IN GND*%
X72640000Y-68580000D03*
%TD*%
%TO.P,R15,1*%
%TO.N,+15V*%
X64385000Y-68580000D03*
%TO.P,R15,2*%
%TO.N,XLR IN GND*%
X69285000Y-68580000D03*
%TD*%
%TO.P,R14,1*%
%TO.N,XLR OUT HOT*%
X116705000Y-70120000D03*
%TO.P,R14,2*%
%TO.N,Net-(Q5-Pad1)*%
X121605000Y-70120000D03*
%TD*%
%TO.P,R13,1*%
%TO.N,Net-(Q5-Pad1)*%
X124415000Y-70120000D03*
%TO.P,R13,2*%
%TO.N,XLR OUT GND*%
X129315000Y-70120000D03*
%TD*%
%TO.P,R12,1*%
%TO.N,XLR OUT COLD*%
X116705000Y-79645000D03*
%TO.P,R12,2*%
%TO.N,Net-(Q5-Pad1)*%
X121605000Y-79645000D03*
%TD*%
D18*
%TO.P,R11,1*%
%TO.N,Net-(C5-Pad1)*%
X108380000Y-79375000D03*
%TO.P,R11,2*%
%TO.N,XLR OUT COLD*%
X110380000Y-79375000D03*
%TD*%
%TO.P,R10,2*%
%TO.N,XLR OUT HOT*%
X110380000Y-76835000D03*
%TO.P,R10,1*%
%TO.N,Net-(C4-Pad1)*%
X108380000Y-76835000D03*
%TD*%
D19*
%TO.P,R9,1*%
%TO.N,XLR IN COLD*%
X81440000Y-69580000D03*
%TO.P,R9,2*%
%TO.N,XLR IN GND*%
X81440000Y-67580000D03*
%TD*%
D17*
%TO.P,R8,1*%
%TO.N,Net-(Q3-Pad3)*%
X101436000Y-66421000D03*
%TO.P,R8,2*%
%TO.N,Net-(C4-Pad2)*%
X106336000Y-66421000D03*
%TD*%
D20*
%TO.P,R7,2*%
%TO.N,XLR OUT GND*%
X99220000Y-74295000D03*
%TO.P,R7,1*%
%TO.N,Net-(C4-Pad2)*%
X101220000Y-74295000D03*
%TD*%
D18*
%TO.P,R6,1*%
%TO.N,+15V*%
X68375000Y-74295000D03*
%TO.P,R6,2*%
%TO.N,Net-(C2-Pad2)*%
X70375000Y-74295000D03*
%TD*%
D20*
%TO.P,R5,1*%
%TO.N,Net-(Q1-Pad1)*%
X85615000Y-83185000D03*
%TO.P,R5,2*%
%TO.N,Net-(C2-Pad1)*%
X83615000Y-83185000D03*
%TD*%
D18*
%TO.P,R4,1*%
%TO.N,Net-(C5-Pad2)*%
X95315000Y-82550000D03*
%TO.P,R4,2*%
%TO.N,XLR OUT GND*%
X97315000Y-82550000D03*
%TD*%
%TO.P,R3,1*%
%TO.N,+15V*%
X68375000Y-80010000D03*
%TO.P,R3,2*%
%TO.N,Net-(Q1-Pad1)*%
X70375000Y-80010000D03*
%TD*%
D21*
%TO.P,R2,2*%
%TO.N,Net-(C5-Pad2)*%
X84615000Y-79920000D03*
%TO.P,R2,1*%
%TO.N,Net-(Q1-Pad2)*%
X84615000Y-75020000D03*
%TD*%
D22*
%TO.P,R1,2*%
%TO.N,XLR IN GND*%
X63660000Y-84820000D03*
%TO.P,R1,1*%
%TO.N,XLR IN HOT*%
X63660000Y-82820000D03*
%TD*%
D23*
%TO.P,Q4,1,E*%
%TO.N,Net-(C2-Pad2)*%
X89940000Y-71985000D03*
D24*
%TO.P,Q4,2,C*%
%TO.N,Net-(Q3-Pad3)*%
X89852500Y-70485000D03*
D23*
%TO.P,Q4,3,B*%
%TO.N,XLR IN COLD*%
X89940000Y-68985000D03*
%TD*%
%TO.P,Q3,1,E*%
%TO.N,Net-(C4-Pad2)*%
X98672500Y-71985000D03*
D24*
%TO.P,Q3,2,C*%
%TO.N,Net-(C2-Pad2)*%
X98585000Y-70485000D03*
D23*
%TO.P,Q3,3,B*%
%TO.N,Net-(Q3-Pad3)*%
X98672500Y-68985000D03*
%TD*%
%TO.P,Q2,1,E*%
%TO.N,Net-(C5-Pad2)*%
X92480000Y-83415000D03*
D24*
%TO.P,Q2,2,C*%
%TO.N,Net-(Q1-Pad1)*%
X92392500Y-81915000D03*
D23*
%TO.P,Q2,3,B*%
%TO.N,Net-(Q1-Pad2)*%
X92480000Y-80415000D03*
%TD*%
%TO.P,Q1,1,E*%
%TO.N,Net-(Q1-Pad1)*%
X95020000Y-77700000D03*
D24*
%TO.P,Q1,2,C*%
%TO.N,Net-(Q1-Pad2)*%
X94932500Y-76200000D03*
D23*
%TO.P,Q1,3,B*%
%TO.N,XLR IN HOT*%
X95020000Y-74700000D03*
%TD*%
D25*
%TO.P,D1,*%
%TO.N,*%
X123920000Y-74200000D03*
%TO.P,D1,1,K*%
%TO.N,+15V*%
X124870000Y-76200000D03*
%TO.P,D1,2,A*%
%TO.N,XLR OUT GND*%
X125820000Y-74200000D03*
%TD*%
D26*
%TO.P,C9,1*%
%TO.N,XLR IN GND*%
X59850000Y-84682500D03*
%TO.P,C9,2*%
%TO.N,XLR OUT GND*%
X59850000Y-82957500D03*
%TD*%
D27*
%TO.P,C8,2*%
%TO.N,XLR OUT GND*%
X63660000Y-78265000D03*
%TO.P,C8,1*%
%TO.N,XLR IN GND*%
X63660000Y-72865000D03*
%TD*%
D28*
%TO.P,C7,1*%
%TO.N,+15V*%
X132875000Y-79535000D03*
%TO.P,C7,2*%
%TO.N,XLR OUT GND*%
X132875000Y-74135000D03*
%TD*%
D29*
%TO.P,C5,1*%
%TO.N,Net-(C5-Pad1)*%
X104935000Y-79375000D03*
%TO.P,C5,2*%
%TO.N,Net-(C5-Pad2)*%
X99535000Y-79375000D03*
%TD*%
%TO.P,C4,1*%
%TO.N,Net-(C4-Pad1)*%
X109065000Y-71755000D03*
%TO.P,C4,2*%
%TO.N,Net-(C4-Pad2)*%
X103665000Y-71755000D03*
%TD*%
D30*
%TO.P,C3,1*%
%TO.N,XLR OUT GND*%
X85477500Y-66675000D03*
%TO.P,C3,2*%
%TO.N,XLR IN GND*%
X83752500Y-66675000D03*
%TD*%
D31*
%TO.P,C2,1*%
%TO.N,Net-(C2-Pad1)*%
X76995000Y-81470000D03*
%TO.P,C2,2*%
%TO.N,Net-(C2-Pad2)*%
X76995000Y-73470000D03*
%TD*%
D26*
%TO.P,C1,1*%
%TO.N,XLR IN GND*%
X65565000Y-84682500D03*
%TO.P,C1,2*%
%TO.N,XLR OUT GND*%
X65565000Y-82957500D03*
%TD*%
D32*
%TO.N,XLR OUT GND*%
X111760000Y-69215000D03*
X61120000Y-83185000D03*
X66835000Y-81915000D03*
X65565000Y-76835000D03*
X87155000Y-66675000D03*
X75090000Y-68580000D03*
%TO.N,+15V*%
X66200000Y-70395000D03*
X64295000Y-65405000D03*
X134780000Y-78740000D03*
%TO.N,XLR OUT GND*%
X99220000Y-81915000D03*
X97950000Y-74930000D03*
%TO.N,+15V*%
X68740000Y-78194500D03*
X68740000Y-76200000D03*
%TO.N,XLR OUT GND*%
X130970000Y-74295000D03*
%TO.N,Net-(C5-Pad2)*%
X86520000Y-77470000D03*
X90330000Y-84455000D03*
%TO.N,XLR OUT GND*%
X128045000Y-73295000D03*
%TD*%
D33*
%TO.N,Net-(Q5-Pad1)*%
X114935000Y-66040000D02*
X117525000Y-66040000D01*
X114449000Y-66526000D02*
X114935000Y-66040000D01*
X117525000Y-66040000D02*
X121605000Y-70120000D01*
D34*
%TO.N,XLR OUT GND*%
X110849000Y-68304000D02*
X111760000Y-69215000D01*
X110849000Y-67183000D02*
X110849000Y-68304000D01*
D33*
%TO.N,Net-(Q3-Pad3)*%
X98872000Y-68985000D02*
X101436000Y-66421000D01*
%TO.N,Net-(C4-Pad2)*%
X106336000Y-69084000D02*
X106336000Y-66421000D01*
X103665000Y-71755000D02*
X106336000Y-69084000D01*
%TO.N,Net-(Q5-Pad1)*%
X120158000Y-79645000D02*
X121605000Y-79645000D01*
X118999000Y-78486000D02*
X120158000Y-79645000D01*
X118999000Y-75311000D02*
X118999000Y-78486000D01*
X119761000Y-74549000D02*
X118999000Y-75311000D01*
X120142000Y-74549000D02*
X119761000Y-74549000D01*
X121375000Y-73316000D02*
X120142000Y-74549000D01*
D34*
%TO.N,XLR OUT GND*%
X60892500Y-82957500D02*
X61120000Y-83185000D01*
X59850000Y-82957500D02*
X60892500Y-82957500D01*
X65792500Y-82957500D02*
X66835000Y-81915000D01*
X65565000Y-82957500D02*
X65792500Y-82957500D01*
D33*
%TO.N,XLR IN GND*%
X59850000Y-75565000D02*
X63025000Y-72390000D01*
X56675000Y-75565000D02*
X59850000Y-75565000D01*
X54770000Y-77470000D02*
X56675000Y-75565000D01*
X54770000Y-84455000D02*
X54770000Y-77470000D01*
X56040000Y-85725000D02*
X54770000Y-84455000D01*
X62390000Y-85725000D02*
X56040000Y-85725000D01*
X63295000Y-84820000D02*
X62390000Y-85725000D01*
X63660000Y-84820000D02*
X65427500Y-84820000D01*
%TO.N,XLR IN HOT*%
X63660000Y-82820000D02*
X63660000Y-81280000D01*
X66200000Y-80010000D02*
X64930000Y-81280000D01*
X82710000Y-73025000D02*
X81440000Y-74295000D01*
X81440000Y-74295000D02*
X81440000Y-76200718D01*
X66200000Y-78740000D02*
X66200000Y-80010000D01*
X67724000Y-77216000D02*
X66200000Y-78740000D01*
X81440000Y-76200718D02*
X80424718Y-77216000D01*
X80424718Y-77216000D02*
X67724000Y-77216000D01*
X87155000Y-73025000D02*
X82710000Y-73025000D01*
X88830000Y-74700000D02*
X87155000Y-73025000D01*
X95020000Y-74700000D02*
X88830000Y-74700000D01*
%TO.N,XLR IN GND*%
X58807500Y-84682500D02*
X59850000Y-84682500D01*
X57945000Y-83820000D02*
X58807500Y-84682500D01*
%TO.N,XLR IN HOT*%
X60485000Y-81280000D02*
X57310000Y-81280000D01*
X64930000Y-81280000D02*
X60485000Y-81280000D01*
%TO.N,XLR IN GND*%
X55405000Y-81915000D02*
X57310000Y-83820000D01*
X60325000Y-76200000D02*
X56675000Y-76200000D01*
X56675000Y-76200000D02*
X55405000Y-77470000D01*
X55405000Y-77470000D02*
X55405000Y-81915000D01*
X63660000Y-72865000D02*
X60325000Y-76200000D01*
X69285000Y-69305000D02*
X65565000Y-73025000D01*
X65565000Y-73025000D02*
X63820000Y-73025000D01*
%TO.N,+15V*%
X63750000Y-67945000D02*
X66200000Y-70395000D01*
D34*
%TO.N,XLR OUT GND*%
X64135000Y-78265000D02*
X65565000Y-76835000D01*
X63660000Y-78265000D02*
X64135000Y-78265000D01*
D33*
%TO.N,XLR IN GND*%
X82345000Y-66675000D02*
X81440000Y-67580000D01*
X83752500Y-66675000D02*
X82345000Y-66675000D01*
D34*
%TO.N,XLR OUT GND*%
X85477500Y-66675000D02*
X87155000Y-66675000D01*
X77540000Y-68580000D02*
X75090000Y-68580000D01*
D33*
%TO.N,XLR IN GND*%
X75180000Y-66040000D02*
X72640000Y-68580000D01*
X79535000Y-66040000D02*
X75180000Y-66040000D01*
X81075000Y-67580000D02*
X79535000Y-66040000D01*
X69285000Y-68580000D02*
X72640000Y-68580000D01*
%TO.N,+15V*%
X64385000Y-65495000D02*
X64295000Y-65405000D01*
X64385000Y-68580000D02*
X64385000Y-65495000D01*
X133985000Y-79535000D02*
X134780000Y-78740000D01*
X132875000Y-79535000D02*
X133985000Y-79535000D01*
D34*
%TO.N,XLR OUT GND*%
X97950000Y-81915000D02*
X99220000Y-81915000D01*
X97315000Y-82550000D02*
X97950000Y-81915000D01*
X98585000Y-74930000D02*
X97950000Y-74930000D01*
X99220000Y-74295000D02*
X98585000Y-74930000D01*
D33*
%TO.N,+15V*%
X68740000Y-78740000D02*
X68740000Y-78194500D01*
X68375000Y-79105000D02*
X68740000Y-78740000D01*
X68375000Y-80010000D02*
X68375000Y-79105000D01*
X68375000Y-75835000D02*
X68740000Y-76200000D01*
X68375000Y-74295000D02*
X68375000Y-75835000D01*
%TO.N,XLR IN COLD*%
X59200000Y-78755000D02*
X57310000Y-78755000D01*
X62390000Y-75565000D02*
X59200000Y-78755000D01*
X64930000Y-75565000D02*
X62390000Y-75565000D01*
X68105000Y-72390000D02*
X64930000Y-75565000D01*
X72550000Y-72390000D02*
X68105000Y-72390000D01*
X74455000Y-70485000D02*
X72550000Y-72390000D01*
X79535000Y-70485000D02*
X74455000Y-70485000D01*
X80440000Y-69580000D02*
X79535000Y-70485000D01*
X81440000Y-69580000D02*
X80440000Y-69580000D01*
X82035000Y-68985000D02*
X81440000Y-69580000D01*
X89940000Y-68985000D02*
X82035000Y-68985000D01*
%TO.N,Net-(Q1-Pad1)*%
X83980000Y-85090000D02*
X85615000Y-83455000D01*
X71280000Y-80915000D02*
X71280000Y-82550000D01*
X71280000Y-82550000D02*
X73820000Y-85090000D01*
X73820000Y-85090000D02*
X83980000Y-85090000D01*
X70375000Y-80010000D02*
X71280000Y-80915000D01*
%TO.N,Net-(C2-Pad2)*%
X70375000Y-74295000D02*
X76170000Y-74295000D01*
D34*
%TO.N,XLR OUT GND*%
X131130000Y-74135000D02*
X130970000Y-74295000D01*
X132875000Y-74135000D02*
X131130000Y-74135000D01*
D33*
%TO.N,+15V*%
X127640000Y-79645000D02*
X132765000Y-79645000D01*
%TO.N,Net-(C2-Pad1)*%
X83615000Y-83185000D02*
X81900000Y-81470000D01*
X81900000Y-81470000D02*
X76995000Y-81470000D01*
%TO.N,Net-(C2-Pad2)*%
X87790000Y-72390000D02*
X78075000Y-72390000D01*
X88195000Y-71985000D02*
X87790000Y-72390000D01*
X89940000Y-71985000D02*
X88195000Y-71985000D01*
%TO.N,Net-(C5-Pad2)*%
X84615000Y-79375000D02*
X86520000Y-77470000D01*
%TO.N,Net-(Q1-Pad1)*%
X86885000Y-81915000D02*
X85615000Y-83185000D01*
X92392500Y-81915000D02*
X86885000Y-81915000D01*
%TO.N,Net-(C5-Pad2)*%
X91370000Y-83415000D02*
X90330000Y-84455000D01*
X92480000Y-83415000D02*
X91370000Y-83415000D01*
%TO.N,Net-(Q1-Pad2)*%
X86610000Y-75020000D02*
X87790000Y-76200000D01*
X84615000Y-75020000D02*
X86610000Y-75020000D01*
X87790000Y-76200000D02*
X94932500Y-76200000D01*
%TO.N,Net-(Q3-Pad3)*%
X96045000Y-67945000D02*
X93505000Y-67945000D01*
X97315000Y-67945000D02*
X96045000Y-67945000D01*
%TO.N,Net-(Q1-Pad2)*%
X92480000Y-77990978D02*
X94270978Y-76200000D01*
X92480000Y-80415000D02*
X92480000Y-77990978D01*
%TO.N,Net-(Q1-Pad1)*%
X95020000Y-80400000D02*
X95020000Y-77700000D01*
X93505000Y-81915000D02*
X95020000Y-80400000D01*
%TO.N,Net-(C2-Pad2)*%
X92005000Y-71985000D02*
X93505000Y-70485000D01*
X89940000Y-71985000D02*
X92005000Y-71985000D01*
%TO.N,Net-(Q3-Pad3)*%
X92235000Y-69850000D02*
X91600000Y-70485000D01*
X93505000Y-67945000D02*
X92235000Y-69215000D01*
X91600000Y-70485000D02*
X89852500Y-70485000D01*
X92235000Y-69215000D02*
X92235000Y-69850000D01*
X98355000Y-68985000D02*
X97315000Y-67945000D01*
%TO.N,Net-(C5-Pad2)*%
X95315000Y-81375000D02*
X95315000Y-82550000D01*
X97315000Y-79375000D02*
X95315000Y-81375000D01*
X99535000Y-79375000D02*
X97315000Y-79375000D01*
X92480000Y-83415000D02*
X94450000Y-83415000D01*
X94450000Y-83415000D02*
X95315000Y-82550000D01*
%TO.N,Net-(C4-Pad2)*%
X99450000Y-71985000D02*
X101220000Y-73755000D01*
X103665000Y-71755000D02*
X101220000Y-74200000D01*
%TO.N,Net-(C5-Pad1)*%
X104935000Y-79375000D02*
X108380000Y-79375000D01*
%TO.N,Net-(C4-Pad1)*%
X109065000Y-75880000D02*
X108380000Y-76565000D01*
X109065000Y-71755000D02*
X109065000Y-75880000D01*
%TO.N,XLR OUT COLD*%
X110475000Y-79280000D02*
X113440000Y-79280000D01*
%TO.N,XLR OUT HOT*%
X110475000Y-76740000D02*
X113440000Y-76740000D01*
D34*
%TO.N,XLR OUT GND*%
X128045000Y-73295000D02*
X127140000Y-74200000D01*
X129315000Y-72025000D02*
X128045000Y-73295000D01*
X127140000Y-74200000D02*
X125820000Y-74200000D01*
X129315000Y-70120000D02*
X129315000Y-72025000D01*
D33*
%TO.N,Net-(Q5-Pad1)*%
X121605000Y-70120000D02*
X124415000Y-70120000D01*
X121605000Y-70120000D02*
X121605000Y-72835000D01*
%TO.N,+15V*%
X124870000Y-76200000D02*
X120560000Y-76200000D01*
X127640000Y-77970000D02*
X125870000Y-76200000D01*
X127640000Y-79645000D02*
X127640000Y-77970000D01*
X125870000Y-76200000D02*
X124870000Y-76200000D01*
%TO.N,Net-(Q5-Pad1)*%
X124109980Y-78375000D02*
X124109980Y-78695000D01*
X122875000Y-78375000D02*
X124109980Y-78375000D01*
X121605000Y-79645000D02*
X122875000Y-78375000D01*
%TO.N,XLR OUT COLD*%
X118520000Y-82185000D02*
X123600000Y-82185000D01*
X123600000Y-82185000D02*
X124109980Y-81675020D01*
X124109980Y-81675020D02*
X124109980Y-80595000D01*
X116705000Y-80370000D02*
X118520000Y-82185000D01*
%TO.N,XLR OUT HOT*%
X116845000Y-73065000D02*
X119475000Y-73065000D01*
X116705000Y-73205000D02*
X116845000Y-73065000D01*
X116705000Y-73205000D02*
X116705000Y-70120000D01*
X116705000Y-75110000D02*
X116705000Y-73205000D01*
X113440000Y-76740000D02*
X115075000Y-76740000D01*
X115075000Y-76740000D02*
X116705000Y-75110000D01*
%TO.N,XLR OUT COLD*%
X113440000Y-79280000D02*
X116340000Y-79280000D01*
%TD*%
M02*
